<?xml version="1.0" encoding="utf-8"?>
<svg width="445px" height="208px" viewBox="0 0 445 208" version="1.1" xmlns:xlink="http://www.w3.org/1999/xlink" xmlns="http://www.w3.org/2000/svg">
  <defs>
    <path d="M0 0L502 0L502 246L0 246L0 0Z" id="path_1" />
    <rect width="445" height="208" id="artboard_1" />
    <clipPath id="clip_1">
      <use xlink:href="#artboard_1" clip-rule="evenodd" />
    </clipPath>
    <clipPath id="mask_1">
      <use xlink:href="#path_1" />
    </clipPath>
  </defs>
  <g id="Artboard" clip-path="url(#clip_1)">
    <use xlink:href="#artboard_1" stroke="none" fill="#FFFFFF" />
    <g id="blackbox-logo" transform="translate(-33.99997 -19)">
      <path d="M0 0L502 0L502 246L0 246L0 0Z" id="Background" fill="none" fill-rule="evenodd" stroke="none" />
      <g clip-path="url(#mask_1)">
        <g id="Group" transform="translate(34.200012 20)">
          <g id="Group">
            <path d="M135.6 117.3L135.6 117.5L67.9 156.6L67.8 156.6L0 117.5L0 117.5L0 39.2L0.0999985 39.1L67.7 0L67.7 0L135.3 39.1L135.5 39.2L135.5 117.3L135.6 117.3Z" transform="translate(22.100006 24.700012)" id="Shape" fill="#FFFFFF" fill-rule="evenodd" stroke="none" />
            <path d="M0 0.0999985L0 0.0999985L0 0L0 0.0999985Z" transform="translate(90 102.79999)" id="Polygon" fill="#FFFFFF" fill-rule="evenodd" stroke="none" />
            <path d="M7.40001 4.3L0 8.6L0 91.8L7.40001 96.1L14.9 100.4L14.9 0L7.40001 4.3Z" transform="translate(165 52.799988)" id="Polygon" fill="#D4D5D5" fill-rule="evenodd" stroke="none" />
            <path d="M0 50.2L7.5 54.5L14.9 58.8L87 17.2L87 8.6L87 0L0 50.2Z" transform="translate(1.5 0)" id="Polygon" fill="#D4D5D5" fill-rule="evenodd" stroke="none" />
            <path d="M79.5 4.3L72.1 0L0 41.6L0 42.5L0 50.2L0 58.8L87 8.60001L79.5 4.3Z" transform="translate(91.399994 147.20001)" id="Polygon" fill="#D4D5D5" fill-rule="evenodd" stroke="none" />
            <path d="M7.4 4.3L0 0L0 100.5L7.4 96.2L14.9 91.9L14.9 8.60001L7.4 4.3Z" transform="translate(0 52.700012)" id="Polygon" fill="#D4D5D5" fill-rule="evenodd" stroke="none" />
            <path d="M67.7 78.2L135.3 39.1L67.6 0L67.6 0L0 39.1L67.7 78.1L67.7 78.2Z" transform="translate(22.299988 24.699997)" id="Polygon" fill="#7E8082" fill-rule="evenodd" stroke="none" />
            <path d="M67.8 39L0.0999985 0L0 0.0999985L0 78.3L0 78.3L67.7 117.5L67.8 117.4L67.8 39.1L67.8 39Z" transform="translate(22.200012 63.799988)" id="Polygon" fill="#000000" fill-rule="evenodd" stroke="none" />
            <path d="M0 39.1L0 39.1L0 117.4L67.7 78.3L67.7 78.2L67.7 0.0999985L67.6 0L0 39.1Z" transform="translate(90 63.799988)" id="Polygon" fill="#414141" fill-rule="evenodd" stroke="none" />
            <path d="M0 0L0 8.6L0 17.2L72.1 58.8L79.5 54.5L87 50.2L0 0Z" transform="translate(91.399994 0)" id="Polygon" fill="#F05A29" fill-rule="evenodd" stroke="none" />
            <path d="M14.9 0L7.4 4.3L0 8.60001L87 58.8L87 50.2L87 42.5L87 41.6L14.9 0Z" transform="translate(1.5 147.20001)" id="Polygon" fill="#3BB44A" fill-rule="evenodd" stroke="none" />
          </g>
          <g id="Group" transform="translate(213 40.199997)">
            <g id="Group" transform="translate(0 41.800003)">
              <path d="M0 0L0.5 0L0.5 15.2L0 15.2L0 0Z" transform="translate(0 0.1000061)" id="Rectangle" fill="#444345" fill-rule="evenodd" stroke="none" />
              <path d="M8.50002 14.5L0.800003 0L0.699997 0L0.400009 0L0.400009 0L0.400009 0L0 0L0 15.2L0.5 15.2L0.5 0.599998L8.2 15.1L8.2 15.2L8.59999 15.2L8.59999 15.2L8.59999 15.2L9.00002 15.2L9.00002 0L8.50002 0L8.50002 14.5Z" transform="translate(3.5 0.1000061)" id="Polygon" fill="#444345" fill-rule="evenodd" stroke="none" />
              <path d="M0 0.5L4.40002 0.5L4.40002 15.2L4.90002 15.2L4.90002 0.5L9.20001 0.5L9.20001 0L0 0L0 0.5Z" transform="translate(14.600006 0.1000061)" id="Polygon" fill="#444345" fill-rule="evenodd" stroke="none" />
              <path d="M0 12.5C0 14.7 2.60001 15.2 3.89999 15.2L8.10001 15.2L8.10001 14.7L3.89999 14.7C2.89999 14.7 1 14.3 0.600006 13C0.399994 12.5 0.5 10.3 0.5 9.00001C0.5 8.60001 0.5 8.30001 0.5 8.10001L0.5 7.8L8.20001 7.8L8.20001 7.3L0.5 7.3L0.5 0.5L8.20001 0.5L8.20001 0L0.100006 0L0.100006 12.5L0 12.5Z" transform="translate(26.00003 0)" id="Shape" fill="#444345" fill-rule="evenodd" stroke="none" />
              <path d="M4.69995 8.4L8.39996 8.4L8.39996 12.6C8.39996 13.9 7.09998 14.5 6.49997 14.6C5.89996 14.8 5.19998 14.8 4.49997 14.8C3.79996 14.8 3.09998 14.7 2.49997 14.6C1.49997 14.4 0.499969 13.7 0.499969 12.6L0.499969 2.6C0.499969 1.4 1.69998 0.699997 2.89996 0.5C3.39996 0.400001 3.99997 0.400001 4.59998 0.400001C5.39996 0.400001 6.19998 0.5 6.79999 0.700005C7.59998 1.00001 8.5 1.50001 8.5 2.7L8.5 2.8L9 2.8L9 2.7C9 1.60001 8.29999 0.700005 6.89999 0.300003C6.29999 0.100006 5.39999 0 4.5 0C3.89999 0 3.29999 0.0999985 2.79999 0.0999985C1 0.400001 0 1.4 0 2.7C0 4.89999 0 7.1 0 9.3C0 10.4 0 11.5 0 12.6L0 12.7C0 14.3 1.5 15 2.39999 15.2C3 15.4 3.69998 15.4 4.5 15.4C5.29999 15.4 6.10001 15.3 6.60001 15.2C8.10001 14.8 8.89999 13.9 8.89999 12.7L8.89999 7.9L4.79999 7.9L4.79999 8.4L4.69995 8.4Z" transform="translate(36.900055 0.1000061)" id="Shape" fill="#444345" fill-rule="evenodd" stroke="none" />
              <path d="M3.89999 0L0 0L0 15.2L0.5 15.2L0.5 8.9L3.89999 8.9C5.19998 8.9 7.29999 9.4 7.29999 11.1L7.29999 15.2L7.79999 15.2L7.79999 11.1C7.79999 9.9 7 9 5.59998 8.7C6.59998 8.39999 7.79999 7.79999 7.79999 6.2L7.79999 2.8C7.79999 0.700005 5.5 0 3.89999 0L3.89999 0ZM7.40002 6.09999C7.40002 6.59999 7.20001 7.09999 6.90002 7.39999C6.10004 8.3 4.50003 8.3 4.00003 8.3L0.600037 8.3L0.600037 0.399994L4.00003 0.399994C5.30002 0.399994 7.40002 0.899994 7.40002 2.59999L7.40002 6.09999L7.40002 6.09999Z" transform="translate(48.399994 0.1000061)" id="Shape" fill="#444345" fill-rule="evenodd" stroke="none" />
              <path d="M7.70001 0.699997C7 0.299995 5.80002 0 4.5 0C3.20001 0 2 0.300003 1.29999 0.699997C0.5 1.2 0 1.89999 0 2.8L0 15.4L0.5 15.4L0.5 9.2L8.39999 9.2L8.39999 15.4L8.89999 15.4L8.89999 2.8C8.89999 1.9 8.5 1.2 7.70001 0.699997L7.70001 0.699997ZM8.39999 8.6L0.5 8.6L0.5 2.7C0.5 1.89999 1.10001 1.3 1.5 1.1C2.20001 0.699997 3.29999 0.5 4.5 0.5C5.70001 0.5 6.79999 0.699997 7.5 1.1C8 1.4 8.5 1.9 8.5 2.7L8.5 8.6L8.39999 8.6Z" transform="translate(58.80002 0)" id="Shape" fill="#444345" fill-rule="evenodd" stroke="none" />
              <path d="M0 0.5L4.29999 0.5L4.29999 15.2L4.79999 15.2L4.79999 0.5L9.19998 0.5L9.19998 0L0 0L0 0.5Z" transform="translate(70.00003 0.1000061)" id="Polygon" fill="#444345" fill-rule="evenodd" stroke="none" />
              <path d="M0 12.4C0 14.6 2.60001 15.1 3.89999 15.1L8.10001 15.1L8.10001 14.6L3.89999 14.6C2.89999 14.6 1.10001 14.2 0.600006 12.9C0.399994 12.4 0.5 10.2 0.5 8.90001C0.5 8.50001 0.5 8.30001 0.5 8.10001L0.5 7.8L8.20001 7.8L8.20001 7.3L0.5 7.3L0.5 0.5L8.20001 0.5L8.20001 0L0 0L0 12.4L0 12.4Z" transform="translate(81.30002 0.1000061)" id="Shape" fill="#444345" fill-rule="evenodd" stroke="none" />
              <path d="M5.10001 0L0 0L0 15.2L5 15.2C6.29999 15.2 8.89999 14.6 8.89999 12.5L8.89999 2.8C8.80002 0.700005 6.60001 0 5.10001 0L5.10001 0ZM8.30002 11.1C8.30002 12.1 8.30002 12.8 8.20001 13C7.80002 14.3 5.90002 14.6 4.90002 14.6L0.400024 14.6L0.400024 0.399994L5.00003 0.399994C6.30002 0.399994 8.30002 0.999992 8.30002 2.59999L8.30002 11.1L8.30002 11.1Z" transform="translate(92.19998 0.1000061)" id="Shape" fill="#444345" fill-rule="evenodd" stroke="none" />
              <path d="M4.69998 7.29999C4.59998 7.29999 4.49997 7.29999 4.39999 7.2C3 6.79999 1.5 6.5 1 5C0.600006 3.9 0.799988 2.3 1.70001 1.5C2.40002 0.900002 3.30002 0.5 4.40002 0.5C4.90002 0.5 5.50003 0.599998 6.00003 0.800003C6.60004 1 7.70004 1.60001 7.70004 2.8L7.70004 2.9L8.20004 2.9L8.20004 2.8C8.20004 1.7 7.50003 0.800003 6.10004 0.300003C5.50003 0.100006 5.00003 0 4.40002 0C3.20001 0 2.10004 0.400001 1.30002 1.1C0.200012 2.1 0.100006 4 0.500031 5.2C1.10004 6.89999 2.80002 7.39999 4.30002 7.7L4.60001 7.79999C5.80002 8.1 7 8.49999 7.60001 9.3C8.60001 10.7 8.30002 12.9 7 14C6.29999 14.6 5.29999 14.9 4.10001 14.9C3.39999 14.9 2.80002 14.8 2.20001 14.6C1.20001 14.3 0.5 13.4 0.5 12.4L0.5 12.3L0 12.3L0 12.4C0 13.7 0.799988 14.7 2 15.1C2.60001 15.3 3.29999 15.4 4 15.4C5.29999 15.4 6.39999 15 7.20001 14.4C8.70001 13.2 9 10.5 7.90002 8.99999C7.29999 8.09999 6.10001 7.69999 4.69998 7.29999L4.69998 7.29999Z" transform="translate(108.899994 0)" id="Shape" fill="#444345" fill-rule="evenodd" stroke="none" />
              <path d="M8.5 3.4C8.5 4.2 8.39999 4.3 7.89999 4.9L4.5 8.6L1.10001 4.9C0.600006 4.3 0.5 4.2 0.5 3.4L0.5 0L0 0L0 3.4C0 4.2 0.100006 4.6 0.700012 5.2L4.20001 9.10001L4.20001 15.2L4.70001 15.2L4.70001 9.10001L8.20001 5.2C8.70001 4.60001 8.90002 4.2 8.90002 3.4L8.90002 0L8.40002 0L8.40002 3.4L8.5 3.4Z" transform="translate(119.50003 0.1000061)" id="Shape" fill="#444345" fill-rule="evenodd" stroke="none" />
              <path d="M4.49994 7.29999C4.39993 7.29999 4.29993 7.29999 4.19995 7.2C2.79996 6.79999 1.29996 6.5 0.899963 5C0.599976 3.9 0.699951 2.3 1.59998 1.5C2.29999 0.900002 3.19998 0.5 4.29999 0.5C4.79999 0.5 5.39999 0.599998 5.89999 0.800003C6.5 1 7.60001 1.60001 7.60001 2.8L7.60001 2.9L8.10001 2.9L8.10001 2.8C8.10001 1.7 7.39999 0.800003 6 0.300003C5.39999 0.100006 4.79999 0 4.29999 0C3.09998 0 2 0.400001 1.19998 1.1C0.0999756 2.1 -3.05176e-05 4 0.399994 5.2C1 6.89999 2.69998 7.39999 4.29999 7.7L4.5 7.79999C5.70001 8.1 6.89999 8.49999 7.5 9.3C8.5 10.7 8.20001 12.9 6.89999 14C6.19998 14.6 5.19998 14.9 4 14.9C3.39999 14.9 2.70001 14.8 2.20001 14.6C1.10001 14.3 0.5 13.4 0.5 12.4L0.5 12.3L0 12.3L0 12.4C0 13.7 0.700012 14.7 2 15.1C2.60001 15.3 3.29999 15.4 4 15.4C5.29999 15.4 6.39999 15 7.20001 14.4C8.70001 13.2 9 10.5 7.90002 8.99999C7.19995 8.09999 5.99994 7.69999 4.49994 7.29999L4.49994 7.29999Z" transform="translate(130.20004 0)" id="Shape" fill="#444345" fill-rule="evenodd" stroke="none" />
              <path d="M0 0.5L4.29999 0.5L4.29999 15.2L4.79999 15.2L4.79999 0.5L9.19998 0.5L9.19998 0L0 0L0 0.5Z" transform="translate(140.4 0.1000061)" id="Polygon" fill="#444345" fill-rule="evenodd" stroke="none" />
              <path d="M0 12.5C0 14.7 2.60001 15.2 3.89999 15.2L8.10001 15.2L8.10001 14.7L3.89999 14.7C2.89999 14.7 1 14.3 0.600006 13C0.399994 12.5 0.5 10.3 0.5 9.00001C0.5 8.60001 0.5 8.30001 0.5 8.10001L0.5 7.8L8.20001 7.8L8.20001 7.3L0.5 7.3L0.5 0.5L8.20001 0.5L8.20001 0L0 0L0 12.5L0 12.5Z" transform="translate(151.69998 0)" id="Shape" fill="#444345" fill-rule="evenodd" stroke="none" />
              <path d="M5.79999 10.9L0.799988 0L0.699982 0L0 0L0 15.2L0.599976 15.2L0.5 0.700005L5.5 11.5L5.5 11.6L6 11.6L11 0.700005L11 15.2L11.5 15.2L11.5 0L10.8 0L5.79999 10.9Z" transform="translate(162.50003 0.1000061)" id="Polygon" fill="#444345" fill-rule="evenodd" stroke="none" />
              <path d="M4.69995 7.29999C4.59995 7.29999 4.49994 7.29999 4.39996 7.2C2.99997 6.79999 1.49997 6.5 0.99997 5C0.599976 3.9 0.799957 2.3 1.69998 1.5C2.39999 0.900002 3.29999 0.5 4.39999 0.5C4.89999 0.5 5.5 0.599998 6 0.800003C6.60001 1 7.70001 1.60001 7.70001 2.8L7.70001 2.9L8.20001 2.9L8.20001 2.8C8.20001 1.7 7.5 0.800003 6.10001 0.300003C5.5 0.100006 5 0 4.39999 0C3.19998 0 2.10001 0.400001 1.29999 1.1C0.199982 2.1 0.0999756 4 0.5 5.2C1 6.89999 2.79999 7.39999 4.29999 7.7L4.5 7.79999C5.70001 8.1 6.89999 8.49999 7.5 9.3C8.5 10.7 8.20001 12.9 6.89999 14C6.19998 14.6 5.19998 14.9 4 14.9C3.29999 14.9 2.70001 14.8 2.20001 14.6C1.20001 14.3 0.5 13.4 0.5 12.4L0.5 12.3L0 12.3L0 12.4C0 13.7 0.799988 14.7 2 15.1C2.60001 15.3 3.29999 15.4 4 15.4C5.29999 15.4 6.39999 15 7.20001 14.4C8.70001 13.2 9 10.5 7.90002 8.99999C7.29996 8.09999 6.09995 7.69999 4.69995 7.29999L4.69995 7.29999Z" transform="translate(176.10007 0)" id="Shape" fill="#444345" fill-rule="evenodd" stroke="none" />
              <path d="M0.5 12.4L0.5 0.0999985L0.5 0L0 0L0 12.5C0 14.5 1.89999 15.2 3.5 15.2L7 15.2L7 14.7L3.5 14.7C2 14.7 0.5 14.1 0.5 12.4L0.5 12.4Z" transform="translate(192.9 0.1000061)" id="Shape" fill="#444345" fill-rule="evenodd" stroke="none" />
              <path d="M0.5 12.4L0.5 0.0999985L0.5 0L0 0L0 12.5C0 14.5 1.89999 15.2 3.5 15.2L7 15.2L7 14.7L3.5 14.7C2 14.7 0.5 14.1 0.5 12.4L0.5 12.4Z" transform="translate(202.19998 0.1000061)" id="Shape" fill="#444345" fill-rule="evenodd" stroke="none" />
              <path d="M8.89999 2.9L8.89999 2.9C8.89999 1.7 8.19998 0.800003 6.79999 0.300003C6.19998 0.100006 5.39999 0 4.5 0C3.89999 0 3.29999 0 2.79999 0.0999985C1.09998 0.400001 0 1.4 0 2.7L0 12.5C0 13.8 1.10001 14.8 2.79999 15.1C3.29999 15.2 3.89999 15.2 4.5 15.2C5.39999 15.2 6.20001 15.1 6.79999 14.9C8.09998 14.5 8.89999 13.6 8.89999 12.5L8.89999 12.4L8.39999 12.4L8.39999 12.5C8.39999 13.7 7.5 14.2 6.69998 14.5C6.09998 14.7 5.39999 14.8 4.59998 14.8C3.99997 14.8 3.39996 14.7 2.89996 14.6C2.29996 14.5 0.49997 14 0.49997 12.5L0.49997 2.7C0.49997 1.39999 1.79996 0.799995 2.89996 0.599998C3.39996 0.5 3.89996 0.5 4.49997 0.5C5.29996 0.5 6.09998 0.599998 6.69998 0.800003C7.49997 1 8.39999 1.60001 8.39999 2.8L8.39999 2.9L8.89999 2.9L8.89999 2.9Z" transform="translate(211.50003 0)" id="Shape" fill="#444345" fill-rule="evenodd" stroke="none" />
            </g>
            <path d="M21.1 16.7C20.8 16.5 20.5 16.4 20.2 16.3L20.2 16.3C22.4 15.2 23.6 13.6 23.7 11.6L23.7 6.1C23.6 4.1 22.5 2.5 20.2 1.4C18.4 0.5 16 0 13.6 0L0 0L0 33.1L0 33.2L13.5 33.2C16.4 33.2 19 32.6 21 31.6C23.5 30.4 24.8 28.6 24.8 26.4L24.8 21.9C24.9 19.8 23.5 17.9 21.1 16.7L21.1 16.7ZM2.89999 2.60001L13.5 2.60001C15.5 2.60001 17.3 3.00001 18.6 3.60001C19.8 4.2 20.5 5.10001 20.5 6.10001L20.5 11.5C20.5 12.6 19.8 13.5 18.6 14.1C17.3 14.8 15.6 15.1 13.4 15.1L2.79999 15.1L2.79999 2.60001L2.89999 2.60001ZM21.9 26.4C21.9 28 20.6 28.9 19.5 29.4C18 30.2 15.8 30.6 13.5 30.6L2.89999 30.6L2.89999 17.6L13.6 17.6C16 17.6 18 18 19.5 18.8C21.1 19.6 21.9 20.6 21.9 21.8L21.9 26.4L21.9 26.4Z" transform="translate(0.3000183 0.30000305)" id="Shape" fill="#444345" fill-rule="evenodd" stroke="none" />
            <path d="M3.10001 26L3.10001 0L0 0L0 26C0 30.5 4.10001 33.2 10.9 33.2L19.2 33.2L19.2 30.6L10.9 30.6C7.30002 30.6 3.10001 29.4 3.10001 26L3.10001 26Z" transform="translate(27.99997 0.3999939)" id="Shape" fill="#444345" fill-rule="evenodd" stroke="none" />
            <path d="M20.6 1.6C18.6 0.599998 15.5 0 12.1 0C8.70001 0 5.5 0.599998 3.60001 1.6C1.30002 2.7 0 4.5 0 6.5L0 33.6L3 33.6L3 20.6L21.2 20.6L21.2 33.5L24.2 33.5L24.2 6.4L24.1 6.4C24.1 4.4 22.8 2.7 20.6 1.6L20.6 1.6ZM21.2 18.1L3 18.1L3 6.49998C3 5.39999 3.70001 4.39999 5.10001 3.69999C6.60001 2.89999 9.20001 2.49998 12.1 2.49998C15 2.49998 17.6 2.99998 19.1 3.69999C20.5 4.39999 21.3 5.39999 21.3 6.49998L21.3 18.1L21.2 18.1Z" transform="translate(48.80002 0)" id="Shape" fill="#444345" fill-rule="evenodd" stroke="none" />
            <path d="M18.3 0.700001C16.7 0.299999 14.5 0 12.1 0C10.5 0 9 0.0999985 7.70001 0.299999C2.90002 1.1 0 3.4 0 6.5L0 27.2C0 30 2.60001 32.3 6.70001 33.2C8.10001 33.5 10.1 33.7 12.1 33.7C14.3 33.7 16.3 33.5 17.8 33.2C21.8 32.2 24.1 30.1 24.1 27.2L24.1 27.1L21.2 27.1L21.1 27.1L21.1 27.2C21.1 28.8 19.6 30.1 16.9 30.7C15.6 31 13.9 31.1 12 31.1C10.2 31.1 8.60001 31 7.29999 30.7C4.39999 30.1 2.79999 28.8 2.79999 27.1L2.79999 6.5C2.79999 4.7 4.79999 3.3 8.09998 2.8C9.29999 2.6 10.7 2.5 12.1 2.5C14.1 2.5 15.9 2.7 17.3 3.1C18.7 3.5 21 4.5 21 6.5L21 6.6L24 6.6L24 6.5C24.1 3.8 22.1 1.7 18.3 0.700001L18.3 0.700001Z" transform="translate(76.600006 0.099990845)" id="Shape" fill="#444345" fill-rule="evenodd" stroke="none" />
            <path d="M3.69998 16.8L2.89999 16.8L2.89999 0.0999908L0 0.0999908L0 33.3L2.89999 33.3L2.89999 18.9L14.5 18.9C16.6 18.9 21.5 19.3 21.5 22.9L21.5 33.2L24.5 33.2L24.5 22.9C24.5 17.8 19 16.7 14.5 16.7L7.39999 16.7L25.6 0.599999L25.6 0.599999L25.6 0L22 0L3.69998 16.8L3.69998 16.8Z" transform="translate(103.50003 0.30000305)" id="Shape" fill="#444345" fill-rule="evenodd" stroke="none" />
            <path d="M21.2 16.7C20.9 16.5 20.6 16.4 20.3 16.3L20.3 16.3C22.5 15.2 23.7 13.6 23.8 11.6L23.8 6.1C23.7 4.1 22.6 2.5 20.3 1.4C18.5 0.5 16.1 0 13.7 0L0 0L0 33.2L0 33.3L13.7 33.3C16.6 33.3 19.2 32.7 21.2 31.7C23.7 30.5 25 28.7 25 26.5L25 22C24.9 19.8 23.6 17.9 21.2 16.7L21.2 16.7ZM3 2.60001L13.6 2.60001C15.6 2.60001 17.4 3.00001 18.7 3.60001C19.9 4.2 20.6 5.10001 20.6 6.10001L20.6 11.5C20.6 12.6 20 13.5 18.7 14.1C17.4 14.8 15.7 15.1 13.5 15.1L3 15.1L3 2.60001L3 2.60001ZM22 26.4C22 27.6 21.2 28.7 19.6 29.4C18.1 30.2 15.9 30.6 13.6 30.6L3 30.6L3 17.6L13.7 17.6C16.1 17.6 18.2 18 19.6 18.8C21.2 19.6 22 20.6 22 21.8L22 26.4L22 26.4Z" transform="translate(141.80002 0.30000305)" id="Shape" fill="#444345" fill-rule="evenodd" stroke="none" />
            <path d="M12.1 0C8.89996 0 5.99997 0.599998 3.79999 1.6C1.29999 2.8 0 4.4 0 6.4L0 27.4C0 31.9 6.29999 33.9 12.1 33.9C15.2 33.9 18.2 33.3 20.4 32.3C22.9 31.1 24.2 29.4 24.2 27.4L24.2 6.4C24.2 2 17.9 0 12.1 0L12.1 0ZM21.1 27.2C21.1 28 21 28.3 20.9 28.4C20 30.5 15.8 31.4 12 31.4C8.19998 31.4 3.99997 30.5 3.19998 28.4C3.09998 28.2 2.99997 27.8 2.99997 27.2L2.89996 6.4C2.89996 3.6 7.59998 2.3 12 2.3C14.4 2.3 16.6 2.7 18.3 3.3C19.5999 3.8 21.0999 4.8 21.0999 6.3L21.1 27.2L21.1 27.2Z" transform="translate(169.6 0)" id="Shape" fill="#444345" fill-rule="evenodd" stroke="none" />
            <path d="M23.9 6.9L23.9 0L20.8 0L20.8 6.9C20.8 8.1 20.8 8.4 19.8 9.20001L12 15L4.10001 9.20001C3 8.3 3 8.10001 3 6.9L3 0L0 0L0 6.9C0 8.6 0.399994 10 2.10001 11.3L9.39999 16.7L2.10001 22C0.300018 23.3 0 24.6 0 26.4L0 33.2L3 33.2L3 26.3C3 25.1 3 24.8 4.10001 24L12 18.2L19.8 24C20.8 24.9 20.8 25.1 20.8 26.3L20.8 33.2L23.9 33.2L23.9 26.4C23.9 24.7 23.5 23.3 21.7 22L14.4 16.7L21.7 11.3C23.5 10 23.9 8.6 23.9 6.9L23.9 6.9Z" transform="translate(196.69998 0.30000305)" id="Shape" fill="#444345" fill-rule="evenodd" stroke="none" />
            <path d="M14.5 5.40001C14.4 4.8 14.2 4.20001 13.9 3.60001C13.6 3 13.3 2.40001 12.8 1.90001C12.6 1.70001 12.4 1.50002 12.1 1.3C11.8 1.10001 11.5 0.900009 11.1 0.699997C10.7 0.5 10.2 0.399994 9.59998 0.199997C8.99997 0.0999908 8.39998 0 7.59998 0L0.399979 0L0.399979 2.89999L6.39998 2.89999C6.99998 2.89999 7.59998 3 7.99998 3.09999C8.49998 3.29999 8.89999 3.49998 9.19998 3.7C9.49997 4 9.79999 4.2 9.99997 4.59999C10.2 4.89999 10.4 5.29999 10.5 5.59999C10.6 5.79999 10.6 6.09999 10.7 6.39999C10.7 6.7 10.8 7 10.8 7.29999C10.8 7.59999 10.8 7.89999 10.8 8.19998C10.8 8.49998 10.8 8.69998 10.8 8.79999C10.8 9.09999 10.8 9.29999 10.8 9.69998C10.8 9.99998 10.8 10.4 10.7 10.7C10.7 11 10.6 11.4 10.5 11.7C10.4 12 10.3 12.3 10.2 12.5C9.99997 12.9 9.69998 13.2 9.39999 13.5C9.10001 13.7 8.7 13.9 8.39999 14.1C8 14.2 7.59999 14.3 7.2 14.3C6.8 14.3 6.39999 14.4 6 14.4L0 14.4L0 17.3L8.10001 17.3C8.40001 17.3 8.80002 17.3 9.20001 17.3C9.60001 17.2 10 17.1 10.5 17C10.9 16.8 11.4 16.6 11.8 16.4C12.2 16.1 12.6 15.8 13 15.3C13.4 14.9 13.6 14.4 13.8 14C14 13.5 14.2 13 14.3 12.5C14.4 12 14.5 11.4 14.5 10.8C14.5 10.2 14.5 9.59998 14.5 8.99997C14.5 8.49997 14.5 7.89996 14.5 7.29997C14.7 6.60002 14.6 6.00002 14.5 5.40001L14.5 5.40001Z" transform="translate(0.1000061 75.3)" id="Shape" fill="#444345" fill-rule="evenodd" stroke="none" />
            <path d="M53.8 11.2C53.8 11.4 53.8 11.6 53.8 11.8C53.8 12 53.7 12.2 53.7 12.5C53.7 12.7 53.5999 12.9 53.4999 13.1C53.3999 13.3 53.2999 13.5 53.0999 13.7C52.9999 13.9 52.8 14 52.5999 14.1C52.3999 14.2 52.2 14.3 51.9999 14.3C51.7999 14.4 51.5999 14.4 51.3999 14.4C51.1999 14.4 50.9999 14.4 50.8999 14.4L47.4999 14.4L47.4999 0L43.7999 0L43.7999 14.5L37.3999 14.5L37.3999 0.0999908L33.6999 0.0999908L33.6999 14.5L31.3999 14.5L31.3999 14.5L24.4999 14.5L24.4999 14.5L17.7999 14.5L17.7999 14.5L15.9999 14.5L15.9999 3.29999C15.9999 2.89999 15.8999 2.49998 15.7999 1.99998C15.6999 1.59999 15.3999 1.19998 14.9999 0.799988C14.5999 0.499985 14.2 0.299988 13.7 0.199982C13.2 0.0999756 12.8 0.0999756 12.3 0.0999756L6.89996 0.0999756C6.49997 0.0999756 6.09998 0.0999756 5.59998 0.0999756C5.09998 0.0999756 4.69998 0.199982 4.29999 0.299973C3.79999 0.399979 3.39999 0.599976 3 0.899979C2.60001 1.09998 2.20001 1.49998 1.79999 1.99998C1.09998 2.79999 0.599976 3.79999 0.299988 4.89998C0.0999756 5.99998 0 7.19998 0 8.49998C0 11.6 0.399994 13.8 1.29999 15.2C1.59998 15.7 2 16.1 2.39999 16.4C2.79999 16.7 3.19998 16.9 3.69998 17.1C4.19998 17.3 4.59998 17.3 5.09998 17.4C5.59998 17.4 5.99997 17.4 6.39996 17.4L12.3 17.4C12.2 18.2 11.9 18.9 11.3 19.4C10.8 19.8 10.3 20 9.69995 20.1C9.39996 20.1 9.09995 20.2 8.89996 20.2C8.69995 20.2 8.39996 20.2 8.19995 20.2L1.19995 20.2L1.19995 23.1L9.09995 23.1C9.39993 23.1 9.79996 23.1 10.3 23.1C10.8 23.1 11.3 23 11.8 22.8C12.3 22.7 12.9 22.4 13.4 22.2C13.9 21.9 14.4 21.5 14.8 21.1C15.2 20.6 15.5 20.1 15.7 19.4C15.9 18.8 15.9999 18.1 16.0999 17.4L18.3999 17.4L18.3999 17.4L24.9999 17.4L24.9999 17.4L31.2999 17.4L31.2999 17.4L52.0999 17.4C52.3999 17.4 52.6999 17.4 53.0999 17.3C53.4999 17.3 53.8999 17.2 54.1999 17.1C54.5999 17 54.8999 16.9 55.2999 16.7C55.6999 16.5 55.9999 16.3 56.2999 16C56.7999 15.5 57.1999 14.9 57.3999 14.2C57.6999 13.5 57.7999 12.7 57.7999 11.8L57.7999 0.0999756L54.0999 0.0999756L54.0999 11.2L53.8 11.2ZM12.2 14.5L7.79996 14.5C7.49997 14.5 7.29996 14.5 6.99997 14.5C6.69998 14.5 6.39996 14.4 6.19998 14.4C5.59998 14.3 5.09998 14 4.69998 13.5C4.59998 13.4 4.49997 13.2 4.39999 13C4.29999 12.8 4.19998 12.5 4.10001 12.1C4 11.7 3.89999 11.3 3.89999 10.7C3.79999 10.2 3.79999 9.49998 3.79999 8.79999C3.79999 8.59999 3.79999 8.29999 3.79999 7.89999C3.79999 7.5 3.79999 7.09999 3.89999 6.59999C3.89999 6.2 4.10001 5.7 4.19998 5.29999C4.29999 4.89999 4.49997 4.49998 4.79999 4.19998C5.09998 3.89998 5.5 3.59998 6 3.39998C6.5 3.19998 7.10001 3.09998 7.70001 3.09998L10.9 3.09998C11.1 3.09998 11.2 3.09998 11.4 3.19998C11.6 3.19998 11.7 3.29999 11.9 3.39998C12.1 3.59998 12.2 3.69998 12.3 3.89998C12.4 4.09998 12.4 4.29997 12.4 4.49998L12.4 14.5L12.2 14.5Z" transform="translate(15.700043 75.3)" id="Shape" fill="#444345" fill-rule="evenodd" stroke="none" />
            <path d="M0.799988 2.1C1.09998 2.2 1.29999 2.3 1.5 2.3C1.70001 2.39999 1.79999 2.39999 1.89999 2.39999C2 2.39999 2 2.39999 2 2.49999C2 2.49999 2 2.49999 2 2.49999C2 2.59999 2 2.59999 1.89999 2.59999L0 2.59999L0 3.59999L2.5 3.59999C2.79999 3.59999 3 3.49998 3.10001 3.29999C3.20001 3.09999 3.30002 2.89999 3.30002 2.59999C3.30002 2.29999 3.20001 1.99999 3.10001 1.89999C2.89999 1.7 2.70001 1.59999 2.39999 1.49999C2.19998 1.39999 2 1.39999 1.79999 1.3C1.59998 1.3 1.5 1.2 1.39999 1.2C1.29999 1.2 1.29999 1.1 1.19998 1.1C1.19998 1.1 1.19998 1.1 1.19998 1C1.19998 1 1.19998 0.900001 1.29999 0.900001C1.29999 0.900001 1.39999 0.900001 1.39999 0.900001L3.29999 0.900001L3.29999 0L1 0C0.700012 0 0.5 0.0999985 0.299988 0.199997C0.0999756 0.299995 0 0.599998 0 0.899994C0 1.2 0.100006 1.39999 0.200012 1.59999C0.299988 1.89999 0.5 2 0.799988 2.1L0.799988 2.1Z" transform="translate(75.399994 64.59999)" id="Shape" fill="#444345" fill-rule="evenodd" stroke="none" />
            <path d="M12.8 15.8C12.8 16.4 12.8 16.9 12.7 17.5C12.6 18 12.4 18.5 12.1 18.9C11.8 19.3 11.5 19.5 11.1 19.7C10.7 19.9 10.1 19.9 9.39999 19.9L8.60001 19.9L4.20001 0L0.5 0L4.89999 19.9L0 19.9L0 22.8L10.2 22.8C10.6 22.8 11 22.8 11.5 22.8C11.9 22.8 12.3 22.7 12.7 22.6C13.1 22.5 13.5 22.4 13.8 22.2C14.2 22 14.5 21.8 14.9 21.4C15.1 21.2 15.3 21 15.5 20.7C15.7 20.4 15.9 20.1 16 19.8C16.2 19.4 16.3 19 16.4 18.5C16.5 18 16.5 17.5 16.5 16.9L16.5 0L12.8 0L12.8 15.8L12.8 15.8Z" transform="translate(74.69998 69.8)" id="Shape" fill="#444345" fill-rule="evenodd" stroke="none" />
            <path d="M0 0L3.7 0L3.7 22.9L0 22.9L0 0Z" transform="translate(92.69998 69.8)" id="Rectangle" fill="#444345" fill-rule="evenodd" stroke="none" />
            <path d="M0 0L3.7 0L3.7 3L0 3L0 0Z" transform="translate(106.50003 69.8)" id="Rectangle" fill="#444345" fill-rule="evenodd" stroke="none" />
            <path d="M0 0L3.7 0L3.7 3L0 3L0 0Z" transform="translate(111.50003 69.8)" id="Rectangle" fill="#444345" fill-rule="evenodd" stroke="none" />
            <path d="M19.7 0.700012C19.3 0.400009 18.9 0.200012 18.4 0.100006C18 0 17.5 0 17 0L11.6 0C11.2 0 10.7 0 10.3 0C9.90002 0 9.40002 0.100006 9.00003 0.199997C8.50003 0.300003 8.10004 0.5 7.70004 0.800003C7.30005 1 6.90005 1.40001 6.50003 1.90001C5.80002 2.70001 5.30002 3.70001 5.10004 4.8C4.90002 5.90001 4.80005 7.10001 4.80005 8.40001C4.80005 11.5 5.20004 13.7 6.10004 15.1C6.40002 15.6 6.80005 16 7.20004 16.3C7.60004 16.6 8.00003 16.8 8.50003 17C8.90002 17.2 9.40002 17.2 9.90002 17.3C10.4 17.3 10.8 17.3 11.2 17.3L17.1 17.3C17 18.1 16.7 18.8 16.1 19.3C15.7 19.7 15.1 19.9 14.5 20C14.2 20 13.9 20.1 13.7 20.1C13.5 20.1 13.2 20.1 13 20.1L8.39999 20.1C7.5 20.1 6.69998 20 6 19.7C5.29999 19.4 4.70001 19 4.29999 18.6C3.79999 18.2 3.5 17.7 3.19998 17.2C2.99997 16.7 2.79999 16.3 2.79999 15.9L0 17.3C0.100006 18 0.399994 18.7 0.799988 19.4C1.19998 20.1 1.69998 20.7 2.29999 21.3C2.89999 21.8 3.69998 22.3 4.59998 22.6C5.49997 22.9 6.49997 23.1 7.59998 23.1L13.7 23.1C14 23.1 14.4 23.1 14.9 23.1C15.4 23.1 15.9 23 16.4 22.8C16.9 22.7 17.5 22.4 18 22.2C18.5 21.9 19 21.5 19.4 21.1C19.9 20.4 20.3 19.6 20.5 18.6C20.7 17.6 20.7 16.6 20.7 15.5L20.7 3.39998C20.7 2.99998 20.6 2.59998 20.5 2.09998C20.3 1.50002 20.1 1.00002 19.7 0.700012L19.7 0.700012ZM16.8999 14.4L12.4999 14.4C12.2 14.4 11.8999 14.4 11.7 14.4C11.4 14.4 11.0999 14.3 10.8 14.3C10.2 14.2 9.69995 13.9 9.29996 13.4C9.19995 13.3 9.09995 13.1 8.99997 12.9C8.89996 12.7 8.79996 12.4 8.69998 12C8.59998 11.6 8.49997 11.2 8.49997 10.6C8.39996 10.1 8.39996 9.40001 8.39996 8.70001C8.39996 8.50002 8.39996 8.20001 8.39996 7.80002C8.39996 7.40002 8.39996 7.00002 8.49997 6.50002C8.59998 6.10002 8.69998 5.60002 8.79996 5.20001C8.89996 4.80002 9.09995 4.40001 9.39996 4.10001C9.69995 3.8 10.1 3.5 10.6 3.3C11.1 3.10001 11.7 3 12.3 3L15.5 3C15.7 3 15.8 3 16 3.10001C16.2 3.10001 16.3 3.20001 16.5 3.3C16.7 3.5 16.9 3.60001 16.9 3.8C16.9 4 17 4.2 17 4.40001L17 14.4L16.8999 14.4Z" transform="translate(98.20004 75.39998)" id="Shape" fill="#444345" fill-rule="evenodd" stroke="none" />
            <path d="M14.9999 0.700012C14.5999 0.400009 14.2 0.200012 13.7 0.100006C13.2 0 12.8 0 12.3 0L6.89996 0C6.49997 0 6.09998 0 5.59998 0C5.19998 0 4.69998 0.100006 4.29999 0.199997C3.89999 0.300003 3.39999 0.5 3 0.800003C2.60001 1 2.20001 1.40001 1.79999 1.90001C1.09998 2.70001 0.599976 3.70001 0.299988 4.8C0.0999756 5.90001 0 7.10001 0 8.40001C0 11.5 0.399994 13.7 1.29999 15.1C1.59998 15.6 2 16 2.39999 16.3C2.79999 16.6 3.19998 16.8 3.69998 17C4.09998 17.2 4.59998 17.2 5.09998 17.3C5.49997 17.3 5.99997 17.3 6.39996 17.3L12.3 17.3C12.2 18.1 11.9 18.8 11.3 19.3C10.9 19.7 10.3 19.9 9.69995 20C9.39996 20 9.09995 20.1 8.89996 20.1C8.69998 20.1 8.39996 20.1 8.19995 20.1L1.19995 20.1L1.19995 23L9.09995 23C9.39993 23 9.79996 23 10.3 23C10.8 23 11.3 22.9 11.8 22.7C12.3 22.6 12.9 22.3 13.4 22.1C13.9 21.8 14.4 21.4 14.8 21C15.3 20.3 15.7 19.5 15.9 18.5C16.1 17.5 16.2 16.5 16.2 15.4L16.2 3.29997C16.2 2.89998 16.0999 2.49997 15.9999 1.99997C15.7 1.50002 15.4 1.00002 14.9999 0.700012L14.9999 0.700012ZM12.3 14.4L7.89996 14.4C7.59998 14.4 7.39996 14.4 7.09998 14.4C6.79999 14.4 6.49997 14.3 6.19998 14.3C5.59998 14.2 5.09998 13.9 4.69998 13.4C4.59998 13.3 4.49997 13.1 4.39999 12.9C4.29999 12.7 4.19998 12.4 4.10001 12C4 11.6 3.89999 11.2 3.89999 10.6C3.79999 10.1 3.79999 9.40001 3.79999 8.70001C3.79999 8.50002 3.79999 8.20001 3.79999 7.80002C3.79999 7.40002 3.79999 7.00002 3.89999 6.50002C4 6.10002 4.10001 5.60002 4.19998 5.20001C4.29999 4.80002 4.49997 4.40001 4.79999 4.10001C5.09998 3.8 5.5 3.5 6 3.3C6.5 3.10001 7.10001 3 7.70001 3L10.9 3C11.1 3 11.2 3 11.4 3.10001C11.6 3.10001 11.7 3.20001 11.9 3.3C12.1 3.5 12.2 3.60001 12.3 3.8C12.3 4 12.4 4.2 12.4 4.40001L12.4 14.4L12.3 14.4Z" transform="translate(120.10007 75.39998)" id="Shape" fill="#444345" fill-rule="evenodd" stroke="none" />
            <path d="M0 0L3.7 0L3.7 3.1L0 3.1L0 0Z" transform="translate(170.69998 69.8)" id="Rectangle" fill="#444345" fill-rule="evenodd" stroke="none" />
            <path d="M74.4001 15.8C74.4001 16.4 74.3 16.9 74.3 17.5C74.2 18 74.0001 18.5 73.7 18.9C73.4001 19.3 73.1 19.5 72.7 19.7C72.3 19.9 71.7 19.9 71 19.9L69.2 19.9L69.2 19.9L67 19.9C67.2 19.5 67.4 19.1 67.6 18.6C67.7 18.2 67.8 17.7 67.9 17.3C68 16.9 68 16.4 68 15.9C68 15.4 68 14.9 68 14.4C68 13.9 68 13.4 68 12.9C68 12.4 68 11.9 67.9 11.3C67.8 10.8 67.7 10.3 67.5 9.80002C67.3 9.30002 67.1 8.80002 66.8 8.30002C66.4 7.70001 66 7.20001 65.6 6.90002C65.2 6.50003 64.7 6.30002 64.2 6.10002C63.7 5.90002 63.2 5.80002 62.7 5.70003C62.2 5.60002 61.8 5.60002 61.3 5.60002L54.1 5.60002C53.9 5.60002 53.7 5.60002 53.4 5.60002C53.1 5.60002 52.8 5.60002 52.4 5.70003C52 5.70003 51.6 5.80003 51.2 5.90002C50.8 6.00003 50.4 6.10002 49.9 6.30002C49.5 6.50001 49.1 6.70001 48.7 6.90002C48.3 7.20003 48 7.50003 47.7 7.90002L47.7 5.60002L44 5.60002L44 20L41.4 20L41.1 20L41 20C40.6 20 40.3 20 39.9 19.9C39.5 19.9 39.1 19.8 38.8 19.6C38.5 19.5 38.2 19.3 37.9 19C37.6 18.7 37.4 18.4 37.3 17.9L37.2 15.5L37.2 5.50002L33.9001 5.50002L33.9001 15.5L33.9001 15.5C33.9001 15.6 33.9001 15.6 33.9001 15.7C33.9001 15.8 33.9001 15.8 33.9001 15.9C33.9001 16.5 33.8 17 33.7 17.5C33.6 18 33.4001 18.4 33.2 18.9C32.9001 19.3 32.6 19.5 32.2 19.7C31.8 19.9 31.2 19.9 30.5 19.9L30.1 19.9L30.1 19.9L23.5 19.9L23.5 19.9L16.8 19.9L16.8 19.9L13.9001 19.9C14.1001 19.5 14.3 19.1 14.4001 18.7C14.5001 18.3 14.6001 17.8 14.7 17.4C14.8 17 14.8 16.5 14.8 16C14.8 15.5 14.8 15 14.8 14.5C14.8 14 14.8 13.4 14.8 12.8C14.8 12.2 14.7 11.6 14.6 11C14.5 10.4 14.3 9.80002 14 9.20001C13.7 8.60001 13.4 8.00001 12.9 7.50002C12.7 7.30002 12.5 7.10002 12.2 6.90001C11.9 6.70001 11.6 6.50001 11.2 6.3C10.8 6.10001 10.3 6 9.70001 5.8C9.10001 5.7 8.5 5.60001 7.70001 5.60001L0.5 5.60001L0.5 8.5L6.5 8.5C7.10001 8.5 7.70001 8.60001 8.10001 8.7C8.5 8.79999 9 9.09999 9.30002 9.3C9.60001 9.60001 9.90002 9.8 10.1 10.2C10.3 10.5 10.5 10.9 10.6 11.2C10.7 11.4 10.7 11.7 10.8 12C10.8 12.3 10.9 12.6 10.9 12.9C10.9 13.2 10.9 13.5 10.9 13.8C10.9 14.1 10.9 14.3 10.9 14.4C10.9 14.7 10.9 14.9 10.9 15.3C10.9 15.6 10.9 16 10.8 16.3C10.8 16.6 10.7 17 10.6 17.3C10.5 17.6 10.4 17.9 10.3 18.1C10.1 18.5 9.80002 18.8 9.50003 19.1C9.20004 19.3 8.80002 19.5 8.40002 19.7C8.00003 19.8 7.60004 19.9 7.20001 19.9C6.80002 19.9 6.40002 20 6 20L0 20L0 22.9L16.8 22.9L16.8 22.9L23.4 22.9L23.4 22.9L30.1 22.9L30.1 22.9L30.9 22.9C31.3 22.9 31.7 22.9 32.2 22.9C32.6 22.9 33 22.8 33.4 22.7C33.8 22.6 34.2 22.5 34.5 22.3C34.9 22.1 35.2 21.9 35.5 21.6C35.8 21.9 36.2 22.1 36.5 22.3C36.9 22.5 37.3 22.6 37.6 22.7C38 22.8 38.4 22.8 38.7 22.9C39.1 22.9 39.4 22.9 39.8 22.9L41 22.9L41.3 22.9L69.1 22.9L69.1 22.9L71.4 22.9C71.8 22.9 72.3 22.9 72.7 22.9C73.1 22.9 73.5 22.8 73.9 22.7C74.3 22.6 74.7 22.5 75 22.3C75.4 22.1 75.7 21.9 76.1 21.5C76.3 21.3 76.5 21.1 76.7 20.8C76.9 20.5 77.1 20.2 77.2 19.9C77.4 19.5 77.5 19.1 77.6 18.6C77.7 18.1 77.7 17.6 77.7 17L77.7 0L74 0L74 15.8L74.4001 15.8ZM64.1 16.6C64.1 17.3 63.9 17.9 63.5 18.4C63.3 18.7 63.2 18.9 62.9 19.1C62.7 19.3 62.4 19.5 62.1 19.6C61.8 19.7 61.4 19.8 61.1 19.9C60.7 19.9 60.3 20 59.8 20L47.9 20L47.9 13.7C48.1 12.1 48.7 10.8 49.5 9.90002C50.4 9.00003 51.6 8.60002 53 8.50003L59.8 8.50003C60.1 8.50003 60.4 8.50003 60.7 8.50003C61 8.50003 61.3 8.60004 61.7 8.70003C62 8.80003 62.3 8.90002 62.6 9.10002C62.9 9.30002 63.2 9.50002 63.4 9.80002C63.7 10.3 63.9 10.9 64.1 11.6C64.2 12.3 64.2 13.3 64.2 14.4C64.2 15.2 64.2 15.9 64.1 16.6L64.1 16.6Z" transform="translate(136.89993 69.79997)" id="Shape" fill="#444345" fill-rule="evenodd" stroke="none" />
            <path d="M0 0L3.7 0L3.7 22.9L0 22.9L0 0Z" transform="translate(216.80002 69.8)" id="Rectangle" fill="#444345" fill-rule="evenodd" stroke="none" />
            <g id="Group" transform="translate(1.1999817 102.500015)">
              <path d="M10 0L4.5 0C3 0 1.89999 0.300003 1.2 1C0.399994 1.7 0 2.89999 0 4.7L0 15.5L1.10001 15.1L1.10001 4.60001C1.10001 3.20001 1.40001 2.3 2.10001 1.70001C2.70001 1.30002 3.60001 1.10001 5 1.10001L7.39999 1.10001C6.59999 1.90001 6.2 3.3 6.2 5.10001C6.2 8.5 7.5 10.3 10.2 10.3C12.8 10.3 14.1 8.60001 14.1 5.10001C13.9 1.7 12.6 0 10 0L10 0ZM10 9.3C8.10001 9.3 7.10001 7.90001 7.10001 5.2C7.10001 2.39999 8.10001 1 10 1C11.9 1 12.8 2.39999 12.8 5.2C12.8 7.89999 11.9 9.3 10 9.3L10 9.3Z" transform="translate(0 7.799988)" id="Shape" fill="#808184" fill-rule="evenodd" stroke="none" />
              <path d="M1 0C0.399994 0 0 0.5 0 1C0 1.60001 0.399994 2 1 2C1.5 2 2 1.60001 2 1C1.89999 0.5 1.5 0 1 0L1 0Z" transform="translate(16 16.600006)" id="Shape" fill="#808184" fill-rule="evenodd" stroke="none" />
              <path d="M10 0L4.5 0C3 0 1.89999 0.300003 1.20001 1C0.400024 1.7 0 2.89999 0 4.7L0 15.5L1.10001 15.1L1.10001 4.60001C1.10001 3.20001 1.39999 2.3 2.10001 1.70001C2.70001 1.30002 3.60001 1.10001 5 1.10001L7.29999 1.10001C6.5 1.90001 6.09998 3.3 6.09998 5.10001C6.09998 8.5 7.39996 10.3 10.1 10.3C12.7 10.3 14 8.60001 14 5.10001C13.9 1.7 12.6 0 10 0L10 0ZM10 9.3C8.10001 9.3 7.10001 7.90001 7.10001 5.2C7.10001 2.39999 8.10001 1 10 1C11.9 1 12.8 2.39999 12.8 5.2C12.8 7.89999 11.9 9.3 10 9.3L10 9.3Z" transform="translate(19.600006 7.799988)" id="Shape" fill="#808184" fill-rule="evenodd" stroke="none" />
              <path d="M1 0C0.399994 0 0 0.5 0 1C0 1.60001 0.399994 2 1 2C1.5 2 2 1.60001 2 1C1.89999 0.5 1.5 0 1 0L1 0Z" transform="translate(35.599976 16.600006)" id="Shape" fill="#808184" fill-rule="evenodd" stroke="none" />
              <path d="M0.700012 1.60001C1.20001 1.60001 1.40002 1.40001 1.40002 0.800003C1.40002 0.300003 1.20001 0 0.700012 0C0.200012 0 0 0.199997 0 0.800003C0 1.30002 0.200012 1.60001 0.700012 1.60001L0.700012 1.60001Z" transform="translate(42.400024 3.0999756)" id="Shape" fill="#808184" fill-rule="evenodd" stroke="none" />
              <path d="M3.90002 0C2.70001 0 1.70001 0.5 1.00003 1.39999L1.00003 3.29999C1.60004 1.79999 2.60004 0.999985 3.90002 0.999985C5.80002 0.999985 6.80002 2.09999 6.80002 4.19998L6.80002 9.09998L0.600006 9.09998L0 10.1L7.89999 10.1L7.89999 3.99997C7.90002 1.5 6.30002 0 3.90002 0L3.90002 0Z" transform="translate(39.19995 8.5)" id="Shape" fill="#808184" fill-rule="evenodd" stroke="none" />
              <path d="M0.700012 1.5C1.20001 1.5 1.40002 1.3 1.40002 0.699997C1.40002 0.199997 1.10004 0 0.700012 0C0.200012 0 0 0.199997 0 0.699997C3.05176e-05 1.20001 0.200012 1.5 0.700012 1.5L0.700012 1.5Z" transform="translate(53.799988 3.2000122)" id="Shape" fill="#808184" fill-rule="evenodd" stroke="none" />
              <path d="M0.700012 1.5C1.20001 1.5 1.40002 1.3 1.40002 0.699997C1.40002 0.199997 1.10004 0 0.700012 0C0.299988 0 0 0.199997 0 0.699997C0 1.20001 0.200012 1.5 0.700012 1.5L0.700012 1.5Z" transform="translate(56.400024 3.2000122)" id="Shape" fill="#808184" fill-rule="evenodd" stroke="none" />
              <path d="M26.8 5.10001C24.2 5.10001 22.9 6.8 22.9 10.3L22.9 10.8C22.9 11 22.9 11.2 22.9 11.3C22.9 13.4 21.9 14.5 20 14.5L19.9 14.5L19 14.5L18.8 14.5C16.9 14.5 15.9 13.5 15.9 11.4L15.9 0L14.8 0.300003L14.8 11.2C14.8 13.3 13.8 14.4 11.9 14.4L11.7 14.4L10.9 14.4C9 14.4 8 13.3 8 11.2L8 4.5L3.79999 4.5C2.69998 4.5 1.89999 4.8 1.29999 5.5C0.399994 6.39999 0 7.89999 0 9.89999C0 13.6 1.29999 15.4 3.89999 15.4C5.69998 15.4 6.79999 14.7 7.39999 13.3C8.10001 14.7 9.19998 15.4 10.8 15.4L11 15.4L11.9 15.4L12.2 15.4C13.8 15.4 14.9 14.8 15.5 13.6C16.1 14.8 17.2 15.4 18.7 15.4L19 15.4L19.9 15.4L20.1 15.4C20.8 15.4 21.4 15.3 22 15C22.7 14.6 23.2 14.1 23.4 13.5C24.1 14.8 25.2 15.4 26.7 15.4C29.3 15.4 30.5999 13.7 30.5999 10.3C30.7 6.8 29.4 5.10001 26.8 5.10001L26.8 5.10001ZM7.00003 9.90002C7.00003 12.9 6.00003 14.4 4.10004 14.4C2.10004 14.4 1.10004 12.9 1.10004 9.90002C1.10004 6.90002 2.10004 5.40002 4.10004 5.40002L7.00003 5.40002L7.00003 9.90002L7.00003 9.90002ZM26.8 14.4C24.9 14.4 24 13 24 10.3C24 7.5 24.9 6.10001 26.8 6.10001C28.7 6.10001 29.6 7.5 29.6 10.3C29.6 13 28.7 14.4 26.8 14.4L26.8 14.4Z" transform="translate(51.200012 3.2000122)" id="Shape" fill="#808184" fill-rule="evenodd" stroke="none" />
              <path d="M0.719177 1.60001C1.21918 1.60001 1.41919 1.40001 1.41919 0.800003C1.41919 0.300003 1.21918 0 0.719177 0C0.219177 0 0.019165 0.199997 0.019165 0.800003C-0.0808105 1.30002 0.219177 1.60001 0.719177 1.60001L0.719177 1.60001Z" transform="translate(105.38086 3.0999756)" id="Shape" fill="#808184" fill-rule="evenodd" stroke="none" />
              <path d="M0.799988 1.60001C1.29999 1.60001 1.5 1.40001 1.5 0.800003C1.5 0.300003 1.29999 0 0.799988 0C0.299988 0 0 0.199997 0 0.800003C-3.05176e-05 1.30002 0.299988 1.60001 0.799988 1.60001L0.799988 1.60001Z" transform="translate(107.900024 3.0999756)" id="Shape" fill="#808184" fill-rule="evenodd" stroke="none" />
              <path d="M46.7001 11.6C46.7001 13.7 45.8001 14.8 43.8001 14.8L43.5001 14.8L42.4001 14.8L42.3001 14.8C40.3001 14.8 39.4001 13.7 39.4001 11.6L39.4001 11.6C39.2001 8.90004 37.8001 7.20004 35.2001 7.20004C33.8001 7.20004 32.7001 7.70004 32.0001 8.60004C31.3001 9.40004 31.0001 10.6 31.0001 12.1C30.8001 13.9 29.9001 14.7 28.1001 14.7L28.0001 14.7L27.2001 14.7L27.0001 14.7C25.1001 14.7 24.1001 13.7 24.1001 11.6L24.1001 4.80003L23.0001 5.20003L23.0001 11.5C23.0001 13.6 22.0001 14.7 20.1001 14.7L20.1001 14.7L19.1001 14.7L17.0001 14.7C17.0001 13 17.0001 11.7 16.9001 10.9C16.7 9.50003 16.2 8.50003 15.4001 7.60002C14.3 6.50002 13.0001 6.00002 11.2 6.00002C10.3 6.00002 9.50003 6.10002 8.70004 6.40001L14.2 0.100006L12.8 0.100006L6.00006 7.90001L6.80005 8.70001C7.90006 7.60001 9.40005 7.00001 11.1 7.00001C12.5 7.00001 13.5 7.40001 14.3 8.20001C15.0001 8.90001 15.4001 9.90001 15.6 11.2C15.7 11.7 15.7 12.8 15.7 14.5L5.00003 14.5L4.40002 14.5L2.70001 14.5C1.60001 14.5 1.10001 13.9 1.10001 12.7L1.10001 1.52588e-05L0 0.400009L0 12.8C0 14.6 0.799988 15.6 2.5 15.6L4.39999 15.6L5 15.6L19 15.6L20 15.6L20.2 15.6C21.8 15.6 22.9 15 23.5 13.8C24.2 15 25.2 15.6 26.7 15.6L27.1 15.6L27.9 15.6L28.2 15.6C29.5 15.6 30.5 15.2 31.2 14.3C31.7 16.2 33 17.2 35.1 17.2C37.2 17.2 38.7 16 39.1 14C39.9 15 40.9 15.5 42.3 15.5L42.3 15.5L42.4 15.5L43.4 15.5L43.9 15.5C46.3 15.5 47.7 13.9 47.7 11.5L47.7 0L46.6 0.300003L46.6 11.6L46.7001 11.6ZM35.2001 16.5C33.2001 16.5 32.2001 15.1 32.2001 12.4C32.2001 9.60002 33.2001 8.30002 35.2001 8.30002C37.2001 8.30002 38.2001 9.70001 38.2001 12.4C38.2001 15.1 37.2001 16.5 35.2001 16.5L35.2001 16.5Z" transform="translate(83.79993 2.7999878)" id="Shape" fill="#808184" fill-rule="evenodd" stroke="none" />
              <path d="M0 15.4L1.10001 15.4L1.10001 0L0 0.300003L0 15.4Z" transform="translate(133.59998 3.2000122)" id="Polygon" fill="#808184" fill-rule="evenodd" stroke="none" />
              <path d="M0.719177 1.5C1.21918 1.5 1.41919 1.3 1.41919 0.699997C1.41919 0.199997 1.21918 0 0.719177 0C0.219177 0 0.019165 0.199997 0.019165 0.699997C-0.0808105 1.20001 0.219177 1.5 0.719177 1.5L0.719177 1.5Z" transform="translate(144.28082 3.2000122)" id="Shape" fill="#808184" fill-rule="evenodd" stroke="none" />
              <path d="M0.700012 1.5C1.20001 1.5 1.40002 1.3 1.40002 0.699997C1.40002 0.199997 1.10004 0 0.700012 0C0.200012 0 0 0.199997 0 0.699997C0 1.20001 0.200012 1.5 0.700012 1.5L0.700012 1.5Z" transform="translate(141.59998 3.2000122)" id="Shape" fill="#808184" fill-rule="evenodd" stroke="none" />
              <path d="M0.719177 1.60001C1.21918 1.60001 1.41919 1.40001 1.41919 0.800003C1.41919 0.300003 1.21918 0 0.719177 0C0.219177 0 0.019165 0.199997 0.019165 0.800003C-0.0808105 1.30002 0.219177 1.60001 0.719177 1.60001L0.719177 1.60001Z" transform="translate(186.28082 3.0999756)" id="Shape" fill="#808184" fill-rule="evenodd" stroke="none" />
              <path d="M59.7001 10.6C59.7001 12.7 58.7001 13.8 56.8001 13.8L55.4001 13.8L55.4001 13.8L54.4001 13.8C54.4001 13 54.5001 12.4 54.5001 12C54.5001 9.99998 54.2001 8.29999 53.5001 7.09999C52.4001 5.29999 50.9001 4.29999 48.9001 4.39999C45.6001 4.5 43.3001 6.59999 42.0001 10.7L42.0001 0L40.9001 0.399994L40.9001 13.9L38.9001 13.9L38.1001 13.9L37.7001 13.9C35.8001 13.9 34.8001 12.8 34.8001 10.7L34.8001 10.7C34.6001 8 33.2001 6.3 30.6001 6.3C29.2001 6.3 28.1001 6.8 27.4001 7.7C26.7 8.5 26.4001 9.7 26.4001 11.2C26.2 13 25.3001 13.8 23.5001 13.8L23.1001 13.8L22.5001 13.8L19.3001 13.8L18.7 13.8L15.5 13.8L14.9 13.8L11.8 13.8L11.1 13.8L10.9 13.8C9 13.8 8 12.7 8 10.6L8 3.90001L3.79999 3.90001C2.69998 3.90001 1.89999 4.20001 1.29999 4.90001C0.399994 5.8 0 7.3 0 9.3C0 13 1.29999 14.8 3.89999 14.8C5.60001 14.8 6.79999 14.1 7.39999 12.7C8 14.1 9.19998 14.8 10.8 14.8L11.1 14.8L11.8 14.8L14.8 14.8L15.4 14.8L18.6 14.8L19.2 14.8L22.4 14.8L23 14.8L23.5 14.8C24.8 14.8 25.8 14.4 26.5 13.5C27 15.4 28.3 16.4 30.4 16.4C32.5 16.4 34 15.2 34.4 13.2C35.2 14.2 36.3 14.7 37.6 14.7L37.8001 14.7L38.6 14.7L55.2 14.7L56.2 14.7L56.8001 14.7C59.1 14.7 60.6 13.1 60.6 10.7L60.6 3.8L59.5 4.2L59.5 10.6L59.7001 10.6ZM7.20007 9.29999C7.20007 12.3 6.20007 13.8 4.30008 13.8C2.30008 13.8 1.40009 12.3 1.40009 9.29999C1.40009 6.29999 2.40009 4.79999 4.30008 4.79999L7.20007 4.79999L7.20007 9.29999L7.20007 9.29999ZM30.5001 15.5C28.5001 15.5 27.5001 14.1 27.5001 11.4C27.5001 8.59996 28.5001 7.29996 30.5001 7.29996C32.5001 7.29996 33.5001 8.69995 33.5001 11.4C33.6001 14.1 32.6001 15.5 30.5001 15.5L30.5001 15.5ZM53.3 13.8L41.8 13.8C41.9001 12.1 42.6 10.4 43.9001 8.60001C45.4001 6.40001 47.1001 5.40001 49.0001 5.5C50.5001 5.60001 51.6001 6.2 52.4001 7.5C53.1001 8.8 53.4001 10.3 53.4001 12C53.4001 12.7 53.4001 13.2 53.3 13.8L53.3 13.8Z" transform="translate(138.8999 3.8000183)" id="Shape" fill="#808184" fill-rule="evenodd" stroke="none" />
              <path d="M0.700012 1.60001C1.20001 1.60001 1.40002 1.40001 1.40002 0.800003C1.40002 0.300003 1.20001 0 0.700012 0C0.200012 0 0 0.199997 0 0.800003C0 1.30002 0.299988 1.60001 0.700012 1.60001L0.700012 1.60001Z" transform="translate(196.09998 3.0999756)" id="Shape" fill="#808184" fill-rule="evenodd" stroke="none" />
              <path d="M3.89999 2L1.89999 2L1.89999 1.7C1.89999 1 2.10001 0.699997 2.60001 0.699997C2.89999 0.699997 3.10001 0.800003 3.30002 1L3.70001 0.399994C3.40002 0.0999908 3.10001 0 2.70001 0C1.70001 0 1.10001 0.600006 1.10001 1.7L1.10001 1.89999L0.5 1.89999L0 2.59999L3.79999 2.59999L3.79999 2L3.89999 2Z" transform="translate(202.30005 0)" id="Shape" fill="#808184" fill-rule="evenodd" stroke="none" />
              <path d="M16.7 0.500031L16.7 11.4C16.7 13.5 15.7 14.6 13.8 14.6L13.5 14.6L12.5 14.6C10.6 14.6 9.60001 13.6 9.60001 11.5L9.60001 0.100021L8.5 0.400024L8.5 11.3C8.5 13.4 7.5 14.5 5.60001 14.5L4.20001 14.5L4.20001 1.20001L3.10001 1.60001L3.10001 14.5L0.5 14.5L0 15.5L6.10001 15.5C7.39999 15.5 8.30002 14.9 9 13.7C9.70001 14.9 10.7 15.5 12.2 15.5L12.3 15.5L13.4 15.5L13.8 15.5C16.1 15.5 17.6 13.9 17.6 11.5L17.6 0L16.7 0.500031L16.7 0.500031Z" transform="translate(201.40002 2.9999695)" id="Shape" fill="#808184" fill-rule="evenodd" stroke="none" />
            </g>
          </g>
        </g>
      </g>
    </g>
  </g>
</svg>