<?xml version="1.0" encoding="utf-8"?>
<!-- Generator: Adobe Illustrator 16.0.0, SVG Export Plug-In . SVG Version: 6.00 Build 0)  -->
<!DOCTYPE svg PUBLIC "-//W3C//DTD SVG 1.1//EN" "http://www.w3.org/Graphics/SVG/1.1/DTD/svg11.dtd">
<svg version="1.1" id="Layer_1" xmlns="http://www.w3.org/2000/svg" xmlns:xlink="http://www.w3.org/1999/xlink" x="0px" y="0px"
	 width="502px" height="246px" viewBox="0 0 502 246" style="enable-background:new 0 0 502 246;" xml:space="preserve">
<style type="text/css">
<![CDATA[
	.st0{fill:#7E8082;}
	.st1{fill:#808184;}
	.st2{fill:#F05A29;}
	.st3{fill:#FFFFFF;}
	.st4{fill:#D4D5D5;}
	.st5{fill:#3BB44A;}
	.st6{fill:#414141;}
	.st7{fill:#444345;}
]]>
</style>
<g>
	<g>
		<path class="st3" d="M191.9,162v0.2l-67.7,39.1l-0.1,0l-67.8-39.1l0,0V83.9l0.1-0.1l67.6-39.1l0,0l67.6,39.1l0.2,0.1V162z"/>
		<polygon class="st3" points="124.2,122.9 124.2,122.9 124.2,122.8 		"/>
		<polygon class="st4" points="206.6,77.1 199.2,81.4 199.2,164.6 206.6,168.9 214.1,173.2 214.1,72.8 		"/>
		<polygon class="st4" points="35.7,70.2 43.2,74.5 50.6,78.8 122.7,37.2 122.7,28.6 122.7,20 		"/>
		<polygon class="st4" points="205.1,171.5 197.7,167.2 125.6,208.8 125.6,209.7 125.6,217.4 125.6,226 212.6,175.8 		"/>
		<polygon class="st4" points="41.6,77 34.2,72.7 34.2,173.2 41.6,168.9 49.1,164.6 49.1,81.3 		"/>
		<polygon class="st0" points="124.2,122.9 191.8,83.8 124.1,44.7 124.1,44.7 56.5,83.8 124.2,122.8 		"/>
		<polygon points="124.2,122.8 56.5,83.8 56.4,83.9 56.4,162.1 56.4,162.1 124.1,201.3 124.2,201.2 124.2,122.9 		"/>
		<polygon class="st6" points="124.2,122.9 124.2,122.9 124.2,201.2 191.9,162.1 191.9,162 191.9,83.9 191.8,83.8 		"/>
		<polygon class="st2" points="125.6,20 125.6,28.6 125.6,37.2 197.7,78.8 205.1,74.5 212.6,70.2 		"/>
		<polygon class="st5" points="50.6,167.2 43.1,171.5 35.7,175.8 122.7,226 122.7,217.4 122.7,209.7 122.7,208.8 		"/>
	</g>
	<g>
		<g>
			<rect x="247.2" y="102.1" class="st7" width="0.5" height="15.2"/>
			<polygon class="st7" points="259.2,116.6 251.5,102.1 251.4,102.1 251.1,102.1 251.1,102.1 251.1,102.1 250.7,102.1 250.7,117.3
				251.2,117.3 251.2,102.7 258.9,117.2 258.9,117.3 259.3,117.3 259.3,117.3 259.3,117.3 259.7,117.3 259.7,102.1 259.2,102.1
				"/>
			<polygon class="st7" points="261.8,102.6 266.2,102.6 266.2,117.3 266.7,117.3 266.7,102.6 271,102.6 271,102.1 261.8,102.1
				"/>
			<path class="st7" d="M273.2,114.5c0,2.2,2.6,2.7,3.9,2.7h4.2v-0.5h-4.2c-1,0-2.9-0.4-3.3-1.7c-0.2-0.5-0.1-2.7-0.1-4
				c0-0.4,0-0.7,0-0.9v-0.3h7.7v-0.5h-7.7v-6.8h7.7v-0.5h-8.1V114.5z"/>
			<path class="st7" d="M288.8,110.5h3.7v4.2c0,1.3-1.3,1.9-1.9,2c-0.6,0.2-1.3,0.2-2,0.2c-0.7,0-1.4-0.1-2-0.2c-1-0.2-2-0.9-2-2
				v-10c0-1.2,1.2-1.9,2.4-2.1c0.5-0.1,1.1-0.1,1.7-0.1c0.8,0,1.6,0.1,2.2,0.3c0.8,0.3,1.7,0.8,1.7,2v0.1h0.5v-0.1
				c0-1.1-0.7-2-2.1-2.4c-0.6-0.2-1.5-0.3-2.4-0.3c-0.6,0-1.2,0.1-1.7,0.1c-1.8,0.3-2.8,1.3-2.8,2.6c0,2.2,0,4.4,0,6.6
				c0,1.1,0,2.2,0,3.3v0.1c0,1.6,1.5,2.3,2.4,2.5c0.6,0.2,1.3,0.2,2.1,0.2c0.8,0,1.6-0.1,2.1-0.2c1.5-0.4,2.3-1.3,2.3-2.5V110h-4.1
				V110.5z"/>
			<path class="st7" d="M299.5,102.1h-3.9v15.2h0.5V111h3.4c1.3,0,3.4,0.5,3.4,2.2v4.1h0.5v-4.1c0-1.2-0.8-2.1-2.2-2.4
				c1-0.3,2.2-0.9,2.2-2.5v-3.4C303.4,102.8,301.1,102.1,299.5,102.1z M303,108.2c0,0.5-0.2,1-0.5,1.3c-0.8,0.9-2.4,0.9-2.9,0.9
				h-3.4v-7.9h3.4c1.3,0,3.4,0.5,3.4,2.2V108.2z"/>
			<path class="st7" d="M313.7,102.7c-0.7-0.4-1.9-0.7-3.2-0.7c-1.3,0-2.5,0.3-3.2,0.7c-0.8,0.5-1.3,1.2-1.3,2.1v12.6h0.5v-6.2h7.9
				v6.2h0.5v-12.6C314.9,103.9,314.5,103.2,313.7,102.7z M314.4,110.6h-7.9v-5.9c0-0.8,0.6-1.4,1-1.6c0.7-0.4,1.8-0.6,3-0.6
				c1.2,0,2.3,0.2,3,0.6c0.5,0.3,1,0.8,1,1.6V110.6z"/>
			<polygon class="st7" points="317.2,102.6 321.5,102.6 321.5,117.3 322,117.3 322,102.6 326.4,102.6 326.4,102.1 317.2,102.1
				"/>
			<path class="st7" d="M328.5,114.5c0,2.2,2.6,2.7,3.9,2.7h4.2v-0.5h-4.2c-1,0-2.8-0.4-3.3-1.7c-0.2-0.5-0.1-2.7-0.1-4
				c0-0.4,0-0.6,0-0.8v-0.3h7.7v-0.5H329v-6.8h7.7v-0.5h-8.2V114.5z"/>
			<path class="st7" d="M344.5,102.1h-5.1v15.2h5c1.3,0,3.9-0.6,3.9-2.7v-9.7C348.2,102.8,346,102.1,344.5,102.1z M347.7,113.2
				c0,1,0,1.7-0.1,1.9c-0.4,1.3-2.3,1.6-3.3,1.6h-4.5v-14.2h4.6c1.3,0,3.3,0.6,3.3,2.2V113.2z"/>
			<path class="st7" d="M360.8,109.3c-0.1,0-0.2,0-0.3-0.1c-1.4-0.4-2.9-0.7-3.4-2.2c-0.4-1.1-0.2-2.7,0.7-3.5c0.7-0.6,1.6-1,2.7-1
				c0.5,0,1.1,0.1,1.6,0.3c0.6,0.2,1.7,0.8,1.7,2v0.1h0.5v-0.1c0-1.1-0.7-2-2.1-2.5c-0.6-0.2-1.1-0.3-1.7-0.3
				c-1.2,0-2.3,0.4-3.1,1.1c-1.1,1-1.2,2.9-0.8,4.1c0.6,1.7,2.3,2.2,3.8,2.5l0.3,0.1c1.2,0.3,2.4,0.7,3,1.5c1,1.4,0.7,3.6-0.6,4.7
				c-0.7,0.6-1.7,0.9-2.9,0.9c-0.7,0-1.3-0.1-1.9-0.3c-1-0.3-1.7-1.2-1.7-2.2v-0.1h-0.5v0.1c0,1.3,0.8,2.3,2,2.7
				c0.6,0.2,1.3,0.3,2,0.3c1.3,0,2.4-0.4,3.2-1c1.5-1.2,1.8-3.9,0.7-5.4C363.4,110.1,362.2,109.7,360.8,109.3z"/>
			<path class="st7" d="M375.2,105.5c0,0.8-0.1,0.9-0.6,1.5l-3.4,3.7l-3.4-3.7c-0.5-0.6-0.6-0.7-0.6-1.5v-3.4h-0.5v3.4
				c0,0.8,0.1,1.2,0.7,1.8l3.5,3.9v6.1h0.5v-6.1l3.5-3.9c0.5-0.6,0.7-1,0.7-1.8v-3.4h-0.5V105.5z"/>
			<path class="st7" d="M381.9,109.3c-0.1,0-0.2,0-0.3-0.1c-1.4-0.4-2.9-0.7-3.3-2.2c-0.3-1.1-0.2-2.7,0.7-3.5c0.7-0.6,1.6-1,2.7-1
				c0.5,0,1.1,0.1,1.6,0.3c0.6,0.2,1.7,0.8,1.7,2v0.1h0.5v-0.1c0-1.1-0.7-2-2.1-2.5c-0.6-0.2-1.2-0.3-1.7-0.3
				c-1.2,0-2.3,0.4-3.1,1.1c-1.1,1-1.2,2.9-0.8,4.1c0.6,1.7,2.3,2.2,3.9,2.5l0.2,0.1c1.2,0.3,2.4,0.7,3,1.5c1,1.4,0.7,3.6-0.6,4.7
				c-0.7,0.6-1.7,0.9-2.9,0.9c-0.6,0-1.3-0.1-1.8-0.3c-1.1-0.3-1.7-1.2-1.7-2.2v-0.1h-0.5v0.1c0,1.3,0.7,2.3,2,2.7
				c0.6,0.2,1.3,0.3,2,0.3c1.3,0,2.4-0.4,3.2-1c1.5-1.2,1.8-3.9,0.7-5.4C384.6,110.1,383.4,109.7,381.9,109.3z"/>
			<polygon class="st7" points="387.6,102.6 391.9,102.6 391.9,117.3 392.4,117.3 392.4,102.6 396.8,102.6 396.8,102.1 387.6,102.1
							"/>
			<path class="st7" d="M398.9,114.5c0,2.2,2.6,2.7,3.9,2.7h4.2v-0.5h-4.2c-1,0-2.9-0.4-3.3-1.7c-0.2-0.5-0.1-2.7-0.1-4
				c0-0.4,0-0.7,0-0.9v-0.3h7.7v-0.5h-7.7v-6.8h7.7v-0.5h-8.2V114.5z"/>
			<polygon class="st7" points="415.5,113 410.5,102.1 410.4,102.1 409.7,102.1 409.7,117.3 410.3,117.3 410.2,102.8 415.2,113.6
				415.2,113.7 415.7,113.7 420.7,102.8 420.7,117.3 421.2,117.3 421.2,102.1 420.5,102.1 			"/>
			<path class="st7" d="M428,109.3c-0.1,0-0.2,0-0.3-0.1c-1.4-0.4-2.9-0.7-3.4-2.2c-0.4-1.1-0.2-2.7,0.7-3.5c0.7-0.6,1.6-1,2.7-1
				c0.5,0,1.1,0.1,1.6,0.3c0.6,0.2,1.7,0.8,1.7,2v0.1h0.5v-0.1c0-1.1-0.7-2-2.1-2.5c-0.6-0.2-1.1-0.3-1.7-0.3
				c-1.2,0-2.3,0.4-3.1,1.1c-1.1,1-1.2,2.9-0.8,4.1c0.5,1.7,2.3,2.2,3.8,2.5l0.2,0.1c1.2,0.3,2.4,0.7,3,1.5c1,1.4,0.7,3.6-0.6,4.7
				c-0.7,0.6-1.7,0.9-2.9,0.9c-0.7,0-1.3-0.1-1.8-0.3c-1-0.3-1.7-1.2-1.7-2.2v-0.1h-0.5v0.1c0,1.3,0.8,2.3,2,2.7
				c0.6,0.2,1.3,0.3,2,0.3c1.3,0,2.4-0.4,3.2-1c1.5-1.2,1.8-3.9,0.7-5.4C430.6,110.1,429.4,109.7,428,109.3z"/>
			<path class="st7" d="M440.6,114.5l0-12.3v-0.1h-0.5v12.5c0,2,1.9,2.7,3.5,2.7h3.5v-0.5h-3.5C442.1,116.8,440.6,116.2,440.6,114.5
				z"/>
			<path class="st7" d="M449.9,114.5l0-12.3v-0.1h-0.5v12.5c0,2,1.9,2.7,3.5,2.7h3.5v-0.5h-3.5C451.4,116.8,449.9,116.2,449.9,114.5
				z"/>
			<path class="st7" d="M467.6,104.9L467.6,104.9c0-1.2-0.7-2.1-2.1-2.6c-0.6-0.2-1.4-0.3-2.3-0.3c-0.6,0-1.2,0-1.7,0.1
				c-1.7,0.3-2.8,1.3-2.8,2.6v9.8c0,1.3,1.1,2.3,2.8,2.6c0.5,0.1,1.1,0.1,1.7,0.1c0.9,0,1.7-0.1,2.3-0.3c1.3-0.4,2.1-1.3,2.1-2.4
				v-0.1h-0.5v0.1c0,1.2-0.9,1.7-1.7,2c-0.6,0.2-1.3,0.3-2.1,0.3c-0.6,0-1.2-0.1-1.7-0.2c-0.6-0.1-2.4-0.6-2.4-2.1v-9.8
				c0-1.3,1.3-1.9,2.4-2.1c0.5-0.1,1-0.1,1.6-0.1c0.8,0,1.6,0.1,2.2,0.3c0.8,0.2,1.7,0.8,1.7,2v0.1H467.6z"/>
		</g>
		<path class="st7" d="M268.6,77.2c-0.3-0.2-0.6-0.3-0.9-0.4l0,0c2.2-1.1,3.4-2.7,3.5-4.7v-5.5c-0.1-2-1.2-3.6-3.5-4.7
			c-1.8-0.9-4.2-1.4-6.6-1.4h-13.6l0,33.1v0.1H261c2.9,0,5.5-0.6,7.5-1.6c2.5-1.2,3.8-3,3.8-5.2v-4.5
			C272.4,80.3,271,78.4,268.6,77.2z M250.4,63.1H261c2,0,3.8,0.4,5.1,1c1.2,0.6,1.9,1.5,1.9,2.5V72c0,1.1-0.7,2-1.9,2.6
			c-1.3,0.7-3,1-5.2,1h-10.6V63.1z M269.4,86.9c0,1.6-1.3,2.5-2.4,3c-1.5,0.8-3.7,1.2-6,1.2h-10.6v-13h10.7c2.4,0,4.4,0.4,5.9,1.2
			c1.6,0.8,2.4,1.8,2.4,3V86.9z"/>
		<path class="st7" d="M278.3,86.6v-26h-3.1v26c0,4.5,4.1,7.2,10.9,7.2h8.3v-2.6h-8.3C282.5,91.2,278.3,90,278.3,86.6z"/>
		<path class="st7" d="M316.6,61.8c-2-1-5.1-1.6-8.5-1.6s-6.6,0.6-8.5,1.6c-2.3,1.1-3.6,2.9-3.6,4.9v27.1h3V80.8h18.2v12.9h3V66.6
			h-0.1C320.1,64.6,318.8,62.9,316.6,61.8z M317.2,78.3h-18.2V66.7c0-1.1,0.7-2.1,2.1-2.8c1.5-0.8,4.1-1.2,7-1.2
			c2.9,0,5.5,0.5,7,1.2c1.4,0.7,2.2,1.7,2.2,2.8V78.3z"/>
		<path class="st7" d="M342.1,61c-1.6-0.4-3.8-0.7-6.2-0.7c-1.6,0-3.1,0.1-4.4,0.3c-4.8,0.8-7.7,3.1-7.7,6.2v20.7
			c0,2.8,2.6,5.1,6.7,6c1.4,0.3,3.4,0.5,5.4,0.5c2.2,0,4.2-0.2,5.7-0.5c4-1,6.3-3.1,6.3-6v-0.1l-2.9,0l-0.1,0v0.1
			c0,1.6-1.5,2.9-4.2,3.5c-1.3,0.3-3,0.4-4.9,0.4c-1.8,0-3.4-0.1-4.7-0.4c-2.9-0.6-4.5-1.9-4.5-3.6V66.8c0-1.8,2-3.2,5.3-3.7
			c1.2-0.2,2.6-0.3,4-0.3c2,0,3.8,0.2,5.2,0.6c1.4,0.4,3.7,1.4,3.7,3.4v0.1h3v-0.1C347.9,64.1,345.9,62,342.1,61z"/>
		<path class="st7" d="M354.4,77.3h-0.8V60.6h-2.9v33.2h2.9V79.4h11.6c2.1,0,7,0.4,7,4v10.3h3V83.4c0-5.1-5.5-6.2-10-6.2h-7.1
			l18.2-16.1l0,0v-0.6h-3.6L354.4,77.3z"/>
		<path class="st7" d="M410.2,77.2c-0.3-0.2-0.6-0.3-0.9-0.4v0c2.2-1.1,3.4-2.7,3.5-4.7v-5.5c-0.1-2-1.2-3.6-3.5-4.7
			c-1.8-0.9-4.2-1.4-6.6-1.4H389L389,93.7v0.1h13.7c2.9,0,5.5-0.6,7.5-1.6c2.5-1.2,3.8-3,3.8-5.2v-4.5
			C413.9,80.3,412.6,78.4,410.2,77.2z M392,63.1h10.6c2,0,3.8,0.4,5.1,1c1.2,0.6,1.9,1.5,1.9,2.5V72c0,1.1-0.6,2-1.9,2.6
			c-1.3,0.7-3,1-5.2,1H392V63.1z M411,86.9c0,1.2-0.8,2.3-2.4,3c-1.5,0.8-3.7,1.2-6,1.2H392v-13h10.7c2.4,0,4.5,0.4,5.9,1.2
			c1.6,0.8,2.4,1.8,2.4,3V86.9z"/>
		<path class="st7" d="M428.9,60.2c-3.2,0-6.1,0.6-8.3,1.6c-2.5,1.2-3.8,2.8-3.8,4.8v21c0,4.5,6.3,6.5,12.1,6.5
			c3.1,0,6.1-0.6,8.3-1.6c2.5-1.2,3.8-2.9,3.8-4.9v-21C441,62.2,434.7,60.2,428.9,60.2z M437.9,87.4c0,0.8-0.1,1.1-0.2,1.2
			c-0.9,2.1-5.1,3-8.9,3c-3.8,0-8-0.9-8.8-3c-0.1-0.2-0.2-0.6-0.2-1.2l-0.1-20.8c0-2.8,4.7-4.1,9.1-4.1c2.4,0,4.6,0.4,6.3,1
			c1.3,0.5,2.8,1.5,2.8,3L437.9,87.4z"/>
		<path class="st7" d="M467.8,67.4v-6.9h-3.1v6.9c0,1.2,0,1.5-1,2.3l-7.8,5.8l-7.9-5.8c-1.1-0.9-1.1-1.1-1.1-2.3v-6.9h-3v6.9
			c0,1.7,0.4,3.1,2.1,4.4l7.3,5.4l-7.3,5.3c-1.8,1.3-2.1,2.6-2.1,4.4v6.8h3v-6.9c0-1.2,0-1.5,1.1-2.3l7.9-5.8l7.8,5.8
			c1,0.9,1,1.1,1,2.3v6.9h3.1v-6.8c0-1.7-0.4-3.1-2.2-4.4l-7.3-5.3l7.3-5.4C467.4,70.5,467.8,69.1,467.8,67.4z"/>
		<path class="st7" d="M261.8,140.9c-0.1-0.6-0.3-1.2-0.6-1.8c-0.3-0.6-0.6-1.2-1.1-1.7c-0.2-0.2-0.4-0.4-0.7-0.6
			c-0.3-0.2-0.6-0.4-1-0.6c-0.4-0.2-0.9-0.3-1.5-0.5c-0.6-0.1-1.2-0.2-2-0.2h-7.2v2.9h6c0.6,0,1.2,0.1,1.6,0.2
			c0.5,0.2,0.9,0.4,1.2,0.6c0.3,0.3,0.6,0.5,0.8,0.9c0.2,0.3,0.4,0.7,0.5,1c0.1,0.2,0.1,0.5,0.2,0.8c0,0.3,0.1,0.6,0.1,0.9
			c0,0.3,0,0.6,0,0.9c0,0.3,0,0.5,0,0.6c0,0.3,0,0.5,0,0.9c0,0.3,0,0.7-0.1,1c0,0.3-0.1,0.7-0.2,1c-0.1,0.3-0.2,0.6-0.3,0.8
			c-0.2,0.4-0.5,0.7-0.8,1c-0.3,0.2-0.7,0.4-1,0.6c-0.4,0.1-0.8,0.2-1.2,0.2c-0.4,0-0.8,0.1-1.2,0.1h-6v2.9h8.1c0.3,0,0.7,0,1.1,0
			c0.4-0.1,0.8-0.2,1.3-0.3c0.4-0.2,0.9-0.4,1.3-0.6c0.4-0.3,0.8-0.6,1.2-1.1c0.4-0.4,0.6-0.9,0.8-1.3c0.2-0.5,0.4-1,0.5-1.5
			c0.1-0.5,0.2-1.1,0.2-1.7c0-0.6,0-1.2,0-1.8c0-0.5,0-1.1,0-1.7C262,142.1,261.9,141.5,261.8,140.9z"/>
		<path class="st7" d="M316.7,146.7c0,0.2,0,0.4,0,0.6c0,0.2-0.1,0.4-0.1,0.7c0,0.2-0.1,0.4-0.2,0.6c-0.1,0.2-0.2,0.4-0.4,0.6
			c-0.1,0.2-0.3,0.3-0.5,0.4c-0.2,0.1-0.4,0.2-0.6,0.2c-0.2,0.1-0.4,0.1-0.6,0.1c-0.2,0-0.4,0-0.5,0h-3.4v-14.4h-3.7V150h-6.4v-14.4
			h-3.7V150h-2.3v0l-6.9,0v0l-6.7,0v0h-1.8v-11.2c0-0.4-0.1-0.8-0.2-1.3c-0.1-0.4-0.4-0.8-0.8-1.2c-0.4-0.3-0.8-0.5-1.3-0.6
			c-0.5-0.1-0.9-0.1-1.4-0.1h-5.4c-0.4,0-0.8,0-1.3,0c-0.5,0-0.9,0.1-1.3,0.2c-0.5,0.1-0.9,0.3-1.3,0.6c-0.4,0.2-0.8,0.6-1.2,1.1
			c-0.7,0.8-1.2,1.8-1.5,2.9c-0.2,1.1-0.3,2.3-0.3,3.6c0,3.1,0.4,5.3,1.3,6.7c0.3,0.5,0.7,0.9,1.1,1.2c0.4,0.3,0.8,0.5,1.3,0.7
			c0.5,0.2,0.9,0.2,1.4,0.3c0.5,0,0.9,0,1.3,0h5.9c-0.1,0.8-0.4,1.5-1,2c-0.5,0.4-1,0.6-1.6,0.7c-0.3,0-0.6,0.1-0.8,0.1
			c-0.2,0-0.5,0-0.7,0h-7v2.9h7.9c0.3,0,0.7,0,1.2,0c0.5,0,1-0.1,1.5-0.3c0.5-0.1,1.1-0.4,1.6-0.6c0.5-0.3,1-0.7,1.4-1.1
			c0.4-0.5,0.7-1,0.9-1.7c0.2-0.6,0.3-1.3,0.4-2h2.3l0,0h6.6l0,0h6.3v0h20.8c0.3,0,0.6,0,1-0.1c0.4,0,0.8-0.1,1.1-0.2
			c0.4-0.1,0.7-0.2,1.1-0.4c0.4-0.2,0.7-0.4,1-0.7c0.5-0.5,0.9-1.1,1.1-1.8c0.3-0.7,0.4-1.5,0.4-2.4v-11.7h-3.7V146.7z M275.1,150
			h-4.4c-0.3,0-0.5,0-0.8,0c-0.3,0-0.6-0.1-0.8-0.1c-0.6-0.1-1.1-0.4-1.5-0.9c-0.1-0.1-0.2-0.3-0.3-0.5c-0.1-0.2-0.2-0.5-0.3-0.9
			c-0.1-0.4-0.2-0.8-0.2-1.4c-0.1-0.5-0.1-1.2-0.1-1.9c0-0.2,0-0.5,0-0.9c0-0.4,0-0.8,0.1-1.3c0-0.4,0.2-0.9,0.3-1.3
			c0.1-0.4,0.3-0.8,0.6-1.1c0.3-0.3,0.7-0.6,1.2-0.8c0.5-0.2,1.1-0.3,1.7-0.3h3.2c0.2,0,0.3,0,0.5,0.1c0.2,0,0.3,0.1,0.5,0.2
			c0.2,0.2,0.3,0.3,0.4,0.5c0.1,0.2,0.1,0.4,0.1,0.6V150z"/>
		<path class="st7" d="M323.4,126.9c0.3,0.1,0.5,0.2,0.7,0.2c0.2,0.1,0.3,0.1,0.4,0.1c0.1,0,0.1,0,0.1,0.1c0,0,0,0,0,0
			c0,0.1,0,0.1-0.1,0.1h-1.9v1h2.5c0.3,0,0.5-0.1,0.6-0.3c0.1-0.2,0.2-0.4,0.2-0.7c0-0.3-0.1-0.6-0.2-0.7c-0.2-0.2-0.4-0.3-0.7-0.4
			c-0.2-0.1-0.4-0.1-0.6-0.2c-0.2,0-0.3-0.1-0.4-0.1c-0.1,0-0.1-0.1-0.2-0.1c0,0,0,0,0-0.1c0,0,0-0.1,0.1-0.1c0,0,0.1,0,0.1,0h1.9
			v-0.9h-2.3c-0.3,0-0.5,0.1-0.7,0.2c-0.2,0.1-0.3,0.4-0.3,0.7c0,0.3,0.1,0.5,0.2,0.7C322.9,126.7,323.1,126.8,323.4,126.9z"/>
		<path class="st7" d="M334.7,145.8c0,0.6,0,1.1-0.1,1.7c-0.1,0.5-0.3,1-0.6,1.4c-0.3,0.4-0.6,0.6-1,0.8c-0.4,0.2-1,0.2-1.7,0.2
			h-0.8l-4.4-19.9h-3.7l4.4,19.9h-4.9v2.9h10.2c0.4,0,0.8,0,1.3,0c0.4,0,0.8-0.1,1.2-0.2c0.4-0.1,0.8-0.2,1.1-0.4
			c0.4-0.2,0.7-0.4,1.1-0.8c0.2-0.2,0.4-0.4,0.6-0.7c0.2-0.3,0.4-0.6,0.5-0.9c0.2-0.4,0.3-0.8,0.4-1.3c0.1-0.5,0.1-1,0.1-1.6V130
			h-3.7V145.8z"/>
		<rect x="339.9" y="130" class="st7" width="3.7" height="22.9"/>
		<rect x="353.7" y="130" class="st7" width="3.7" height="3"/>
		<rect x="358.7" y="130" class="st7" width="3.7" height="3"/>
		<path class="st7" d="M365.1,136.3c-0.4-0.3-0.8-0.5-1.3-0.6c-0.4-0.1-0.9-0.1-1.4-0.1h-5.4c-0.4,0-0.9,0-1.3,0
			c-0.4,0-0.9,0.1-1.3,0.2c-0.5,0.1-0.9,0.3-1.3,0.6c-0.4,0.2-0.8,0.6-1.2,1.1c-0.7,0.8-1.2,1.8-1.4,2.9c-0.2,1.1-0.3,2.3-0.3,3.6
			c0,3.1,0.4,5.3,1.3,6.7c0.3,0.5,0.7,0.9,1.1,1.2c0.4,0.3,0.8,0.5,1.3,0.7c0.4,0.2,0.9,0.2,1.4,0.3c0.5,0,0.9,0,1.3,0h5.9
			c-0.1,0.8-0.4,1.5-1,2c-0.4,0.4-1,0.6-1.6,0.7c-0.3,0-0.6,0.1-0.8,0.1c-0.2,0-0.5,0-0.7,0h-4.6c-0.9,0-1.7-0.1-2.4-0.4
			c-0.7-0.3-1.3-0.7-1.7-1.1c-0.5-0.4-0.8-0.9-1.1-1.4c-0.2-0.5-0.4-0.9-0.4-1.3l-2.8,1.4c0.1,0.7,0.4,1.4,0.8,2.1
			c0.4,0.7,0.9,1.3,1.5,1.9c0.6,0.5,1.4,1,2.3,1.3c0.9,0.3,1.9,0.5,3,0.5h6.1c0.3,0,0.7,0,1.2,0c0.5,0,1-0.1,1.5-0.3
			c0.5-0.1,1.1-0.4,1.6-0.6c0.5-0.3,1-0.7,1.4-1.1c0.5-0.7,0.9-1.5,1.1-2.5c0.2-1,0.2-2,0.2-3.1v-12.1c0-0.4-0.1-0.8-0.2-1.3
			C365.7,137.1,365.5,136.6,365.1,136.3z M362.3,150h-4.4c-0.3,0-0.6,0-0.8,0c-0.3,0-0.6-0.1-0.9-0.1c-0.6-0.1-1.1-0.4-1.5-0.9
			c-0.1-0.1-0.2-0.3-0.3-0.5c-0.1-0.2-0.2-0.5-0.3-0.9c-0.1-0.4-0.2-0.8-0.2-1.4c-0.1-0.5-0.1-1.2-0.1-1.9c0-0.2,0-0.5,0-0.9
			c0-0.4,0-0.8,0.1-1.3c0.1-0.4,0.2-0.9,0.3-1.3c0.1-0.4,0.3-0.8,0.6-1.1c0.3-0.3,0.7-0.6,1.2-0.8c0.5-0.2,1.1-0.3,1.7-0.3h3.2
			c0.2,0,0.3,0,0.5,0.1c0.2,0,0.3,0.1,0.5,0.2c0.2,0.2,0.4,0.3,0.4,0.5c0,0.2,0.1,0.4,0.1,0.6V150z"/>
		<path class="st7" d="M382.3,136.3c-0.4-0.3-0.8-0.5-1.3-0.6c-0.5-0.1-0.9-0.1-1.4-0.1h-5.4c-0.4,0-0.8,0-1.3,0
			c-0.4,0-0.9,0.1-1.3,0.2c-0.4,0.1-0.9,0.3-1.3,0.6c-0.4,0.2-0.8,0.6-1.2,1.1c-0.7,0.8-1.2,1.8-1.5,2.9c-0.2,1.1-0.3,2.3-0.3,3.6
			c0,3.1,0.4,5.3,1.3,6.7c0.3,0.5,0.7,0.9,1.1,1.2c0.4,0.3,0.8,0.5,1.3,0.7c0.4,0.2,0.9,0.2,1.4,0.3c0.4,0,0.9,0,1.3,0h5.9
			c-0.1,0.8-0.4,1.5-1,2c-0.4,0.4-1,0.6-1.6,0.7c-0.3,0-0.6,0.1-0.8,0.1s-0.5,0-0.7,0h-7v2.9h7.9c0.3,0,0.7,0,1.2,0
			c0.5,0,1-0.1,1.5-0.3c0.5-0.1,1.1-0.4,1.6-0.6c0.5-0.3,1-0.7,1.4-1.1c0.5-0.7,0.9-1.5,1.1-2.5c0.2-1,0.3-2,0.3-3.1v-12.1
			c0-0.4-0.1-0.8-0.2-1.3C383,137.1,382.7,136.6,382.3,136.3z M379.6,150h-4.4c-0.3,0-0.5,0-0.8,0c-0.3,0-0.6-0.1-0.9-0.1
			c-0.6-0.1-1.1-0.4-1.5-0.9c-0.1-0.1-0.2-0.3-0.3-0.5c-0.1-0.2-0.2-0.5-0.3-0.9c-0.1-0.4-0.2-0.8-0.2-1.4c-0.1-0.5-0.1-1.2-0.1-1.9
			c0-0.2,0-0.5,0-0.9c0-0.4,0-0.8,0.1-1.3c0.1-0.4,0.2-0.9,0.3-1.3c0.1-0.4,0.3-0.8,0.6-1.1c0.3-0.3,0.7-0.6,1.2-0.8
			c0.5-0.2,1.1-0.3,1.7-0.3h3.2c0.2,0,0.3,0,0.5,0.1c0.2,0,0.3,0.1,0.5,0.2c0.2,0.2,0.3,0.3,0.4,0.5c0,0.2,0.1,0.4,0.1,0.6V150z"/>
		<rect x="417.9" y="130" class="st7" width="3.7" height="3.1"/>
		<path class="st7" d="M458.5,145.8c0,0.6-0.1,1.1-0.1,1.7c-0.1,0.5-0.3,1-0.6,1.4c-0.3,0.4-0.6,0.6-1,0.8c-0.4,0.2-1,0.2-1.7,0.2
			h-1.8v0h-2.2c0.2-0.4,0.4-0.8,0.6-1.3c0.1-0.4,0.2-0.9,0.3-1.3c0.1-0.4,0.1-0.9,0.1-1.4c0-0.5,0-1,0-1.5c0-0.5,0-1,0-1.5
			c0-0.5,0-1-0.1-1.6c-0.1-0.5-0.2-1-0.4-1.5c-0.2-0.5-0.4-1-0.7-1.5c-0.4-0.6-0.8-1.1-1.2-1.4c-0.4-0.4-0.9-0.6-1.4-0.8
			c-0.5-0.2-1-0.3-1.5-0.4c-0.5-0.1-0.9-0.1-1.4-0.1h-7.2c-0.2,0-0.4,0-0.7,0c-0.3,0-0.6,0-1,0.1c-0.4,0-0.8,0.1-1.2,0.2
			c-0.4,0.1-0.8,0.2-1.3,0.4c-0.4,0.2-0.8,0.4-1.2,0.6c-0.4,0.3-0.7,0.6-1,1l0-2.3h-3.7V150h-2.6h-0.3h-0.1c-0.4,0-0.7,0-1.1-0.1
			c-0.4,0-0.8-0.1-1.1-0.3c-0.3-0.1-0.6-0.3-0.9-0.6c-0.3-0.3-0.5-0.6-0.6-1.1l-0.1-2.4v-10H418v10h0c0,0.1,0,0.1,0,0.2
			c0,0.1,0,0.1,0,0.2c0,0.6-0.1,1.1-0.2,1.6c-0.1,0.5-0.3,0.9-0.5,1.4c-0.3,0.4-0.6,0.6-1,0.8c-0.4,0.2-1,0.2-1.7,0.2h-0.4v0l-6.6,0
			v0l-6.7,0v0H398c0.2-0.4,0.4-0.8,0.5-1.2c0.1-0.4,0.2-0.9,0.3-1.3c0.1-0.4,0.1-0.9,0.1-1.4c0-0.5,0-1,0-1.5c0-0.5,0-1.1,0-1.7
			c0-0.6-0.1-1.2-0.2-1.8c-0.1-0.6-0.3-1.2-0.6-1.8s-0.6-1.2-1.1-1.7c-0.2-0.2-0.4-0.4-0.7-0.6c-0.3-0.2-0.6-0.4-1-0.6
			c-0.4-0.2-0.9-0.3-1.5-0.5c-0.6-0.1-1.2-0.2-2-0.2h-7.2v2.9h6c0.6,0,1.2,0.1,1.6,0.2s0.9,0.4,1.2,0.6c0.3,0.3,0.6,0.5,0.8,0.9
			c0.2,0.3,0.4,0.7,0.5,1c0.1,0.2,0.1,0.5,0.2,0.8c0,0.3,0.1,0.6,0.1,0.9c0,0.3,0,0.6,0,0.9c0,0.3,0,0.5,0,0.6c0,0.3,0,0.5,0,0.9
			c0,0.3,0,0.7-0.1,1c0,0.3-0.1,0.7-0.2,1c-0.1,0.3-0.2,0.6-0.3,0.8c-0.2,0.4-0.5,0.7-0.8,1c-0.3,0.2-0.7,0.4-1.1,0.6
			c-0.4,0.1-0.8,0.2-1.2,0.2c-0.4,0-0.8,0.1-1.2,0.1h-6v2.9h16.8l0,0h6.6l0,0h6.7l0,0h0.8c0.4,0,0.8,0,1.3,0c0.4,0,0.8-0.1,1.2-0.2
			c0.4-0.1,0.8-0.2,1.1-0.4c0.4-0.2,0.7-0.4,1-0.7c0.3,0.3,0.7,0.5,1,0.7c0.4,0.2,0.8,0.3,1.1,0.4c0.4,0.1,0.8,0.1,1.1,0.2
			c0.4,0,0.7,0,1.1,0h1.2h0.3h27.8l0,0h2.3c0.4,0,0.9,0,1.3,0c0.4,0,0.8-0.1,1.2-0.2c0.4-0.1,0.8-0.2,1.1-0.4
			c0.4-0.2,0.7-0.4,1.1-0.8c0.2-0.2,0.4-0.4,0.6-0.7c0.2-0.3,0.4-0.6,0.5-0.9c0.2-0.4,0.3-0.8,0.4-1.3c0.1-0.5,0.1-1,0.1-1.6v-17
			h-3.7V145.8z M448.2,146.6c0,0.7-0.2,1.3-0.6,1.8c-0.2,0.3-0.3,0.5-0.6,0.7c-0.2,0.2-0.5,0.4-0.8,0.5c-0.3,0.1-0.7,0.2-1,0.3
			c-0.4,0-0.8,0.1-1.3,0.1H432v-6.3c0.2-1.6,0.8-2.9,1.6-3.8c0.9-0.9,2.1-1.3,3.5-1.4h6.8c0.3,0,0.6,0,0.9,0c0.3,0,0.6,0.1,1,0.2
			c0.3,0.1,0.6,0.2,0.9,0.4c0.3,0.2,0.6,0.4,0.8,0.7c0.3,0.5,0.5,1.1,0.7,1.8c0.1,0.7,0.1,1.7,0.1,2.8
			C448.3,145.2,448.3,145.9,448.2,146.6z"/>
		<rect x="464" y="130" class="st7" width="3.7" height="22.9"/>
		<g>
			<path class="st1" d="M258.4,170.5h-5.5c-1.5,0-2.6,0.3-3.3,1c-0.8,0.7-1.2,1.9-1.2,3.7V186l1.1-0.4v-10.5c0-1.4,0.3-2.3,1-2.9
				c0.6-0.4,1.5-0.6,2.9-0.6h2.4c-0.8,0.8-1.2,2.2-1.2,4c0,3.4,1.3,5.2,4,5.2c2.6,0,3.9-1.7,3.9-5.2
				C262.3,172.2,261,170.5,258.4,170.5z M258.4,179.8c-1.9,0-2.9-1.4-2.9-4.1c0-2.8,1-4.2,2.9-4.2c1.9,0,2.8,1.4,2.8,4.2
				C261.2,178.4,260.3,179.8,258.4,179.8z"/>
			<path class="st1" d="M265.4,179.3c-0.6,0-1,0.5-1,1c0,0.6,0.4,1,1,1c0.5,0,1-0.4,1-1C266.3,179.8,265.9,179.3,265.4,179.3z"/>
			<path class="st1" d="M278,170.5h-5.5c-1.5,0-2.6,0.3-3.3,1c-0.8,0.7-1.2,1.9-1.2,3.7V186l1.1-0.4v-10.5c0-1.4,0.3-2.3,1-2.9
				c0.6-0.4,1.5-0.6,2.9-0.6h2.3c-0.8,0.8-1.2,2.2-1.2,4c0,3.4,1.3,5.2,4,5.2c2.6,0,3.9-1.7,3.9-5.2
				C281.9,172.2,280.6,170.5,278,170.5z M278,179.8c-1.9,0-2.9-1.4-2.9-4.1c0-2.8,1-4.2,2.9-4.2c1.9,0,2.8,1.4,2.8,4.2
				C280.8,178.4,279.9,179.8,278,179.8z"/>
			<path class="st1" d="M285,179.3c-0.6,0-1,0.5-1,1c0,0.6,0.4,1,1,1c0.5,0,1-0.4,1-1C285.9,179.8,285.5,179.3,285,179.3z"/>
			<path class="st1" d="M291.5,167.4c0.5,0,0.7-0.2,0.7-0.8c0-0.5-0.2-0.8-0.7-0.8s-0.7,0.2-0.7,0.8
				C290.8,167.1,291,167.4,291.5,167.4z"/>
			<path class="st1" d="M291.5,171.2c-1.2,0-2.2,0.5-2.9,1.4v1.9c0.6-1.5,1.6-2.3,2.9-2.3c1.9,0,2.9,1.1,2.9,3.2v4.9h-6.2l-0.6,1
				h7.9v-6.1C295.5,172.7,293.9,171.2,291.5,171.2z"/>
			<path class="st1" d="M302.9,167.4c0.5,0,0.7-0.2,0.7-0.8c0-0.5-0.3-0.7-0.7-0.7c-0.5,0-0.7,0.2-0.7,0.7
				C302.2,167.1,302.4,167.4,302.9,167.4z"/>
			<path class="st1" d="M305.5,167.4c0.5,0,0.7-0.2,0.7-0.8c0-0.5-0.3-0.7-0.7-0.7s-0.7,0.2-0.7,0.7
				C304.8,167.1,305,167.4,305.5,167.4z"/>
			<path class="st1" d="M326.4,171c-2.6,0-3.9,1.7-3.9,5.2v0.5c0,0.2,0,0.4,0,0.5c0,2.1-1,3.2-2.9,3.2h-0.1h-0.9h-0.2
				c-1.9,0-2.9-1-2.9-3.1v-11.4l-1.1,0.3v10.9c0,2.1-1,3.2-2.9,3.2h-0.2h-0.8c-1.9,0-2.9-1.1-2.9-3.2v-6.7h-4.2
				c-1.1,0-1.9,0.3-2.5,1c-0.9,0.9-1.3,2.4-1.3,4.4c0,3.7,1.3,5.5,3.9,5.5c1.8,0,2.9-0.7,3.5-2.1c0.7,1.4,1.8,2.1,3.4,2.1h0.2h0.9
				h0.3c1.6,0,2.7-0.6,3.3-1.8c0.6,1.2,1.7,1.8,3.2,1.8h0.3h0.9h0.2c0.7,0,1.3-0.1,1.9-0.4c0.7-0.4,1.2-0.9,1.4-1.5
				c0.7,1.3,1.8,1.9,3.3,1.9c2.6,0,3.9-1.7,3.9-5.1C330.3,172.7,329,171,326.4,171z M306.6,175.8c0,3-1,4.5-2.9,4.5
				c-2,0-3-1.5-3-4.5c0-3,1-4.5,3-4.5h2.9V175.8z M326.4,180.3c-1.9,0-2.8-1.4-2.8-4.1c0-2.8,0.9-4.2,2.8-4.2c1.9,0,2.8,1.4,2.8,4.2
				C329.2,178.9,328.3,180.3,326.4,180.3z"/>
			<path class="st1" d="M354.5,167.4c0.5,0,0.7-0.2,0.7-0.8c0-0.5-0.2-0.8-0.7-0.8s-0.7,0.2-0.7,0.8
				C353.7,167.1,354,167.4,354.5,167.4z"/>
			<path class="st1" d="M357.1,167.4c0.5,0,0.7-0.2,0.7-0.8c0-0.5-0.2-0.8-0.7-0.8c-0.5,0-0.8,0.2-0.8,0.8
				C356.3,167.1,356.6,167.4,357.1,167.4z"/>
			<path class="st1" d="M378.9,177.1c0,2.1-0.9,3.2-2.9,3.2h-0.3h-1.1h-0.1c-2,0-2.9-1.1-2.9-3.2h0c-0.2-2.7-1.6-4.4-4.2-4.4
				c-1.4,0-2.5,0.5-3.2,1.4c-0.7,0.8-1,2-1,3.5c-0.2,1.8-1.1,2.6-2.9,2.6h-0.1h-0.8h-0.2c-1.9,0-2.9-1-2.9-3.1v-6.8l-1.1,0.4v6.3
				c0,2.1-1,3.2-2.9,3.2h0h-1h-2.1c0-1.7,0-3-0.1-3.8c-0.2-1.4-0.7-2.4-1.5-3.3c-1.1-1.1-2.4-1.6-4.2-1.6c-0.9,0-1.7,0.1-2.5,0.4
				l5.5-6.3h-1.4l-6.8,7.8l0.8,0.8c1.1-1.1,2.6-1.7,4.3-1.7c1.4,0,2.4,0.4,3.2,1.2c0.7,0.7,1.1,1.7,1.3,3c0.1,0.5,0.1,1.6,0.1,3.3
				h-10.7h-0.6h-1.7c-1.1,0-1.6-0.6-1.6-1.8v-12.7l-1.1,0.4v12.4c0,1.8,0.8,2.8,2.5,2.8h1.9h0.6h14h1h0.2c1.6,0,2.7-0.6,3.3-1.8
				c0.7,1.2,1.7,1.8,3.2,1.8h0.4h0.8h0.3c1.3,0,2.3-0.4,3-1.3c0.5,1.9,1.8,2.9,3.9,2.9c2.1,0,3.6-1.2,4-3.2c0.8,1,1.8,1.5,3.2,1.5
				l0,0h0.1h1h0.5c2.4,0,3.8-1.6,3.8-4v-11.5l-1.1,0.3V177.1z M367.4,182c-2,0-3-1.4-3-4.1c0-2.8,1-4.1,3-4.1c2,0,3,1.4,3,4.1
				C370.4,180.6,369.4,182,367.4,182z"/>
			<polygon class="st1" points="382,181.3 383.1,181.3 383.1,165.9 382,166.2 			"/>
			<path class="st1" d="M393.4,167.4c0.5,0,0.7-0.2,0.7-0.8c0-0.5-0.2-0.7-0.7-0.7c-0.5,0-0.7,0.2-0.7,0.7
				C392.6,167.1,392.9,167.4,393.4,167.4z"/>
			<path class="st1" d="M390.7,167.4c0.5,0,0.7-0.2,0.7-0.8c0-0.5-0.3-0.7-0.7-0.7c-0.5,0-0.7,0.2-0.7,0.7
				C390,167.1,390.2,167.4,390.7,167.4z"/>
			<path class="st1" d="M435.4,167.4c0.5,0,0.7-0.2,0.7-0.8c0-0.5-0.2-0.8-0.7-0.8c-0.5,0-0.7,0.2-0.7,0.8
				C434.6,167.1,434.9,167.4,435.4,167.4z"/>
			<path class="st1" d="M447,177.1c0,2.1-1,3.2-2.9,3.2h-1.4v0h-1c0-0.8,0.1-1.4,0.1-1.8c0-2-0.3-3.7-1-4.9
				c-1.1-1.8-2.6-2.8-4.6-2.7c-3.3,0.1-5.6,2.2-6.9,6.3v-10.7l-1.1,0.4v13.5h-2h-0.8H425c-1.9,0-2.9-1.1-2.9-3.2h0
				c-0.2-2.7-1.6-4.4-4.2-4.4c-1.4,0-2.5,0.5-3.2,1.4c-0.7,0.8-1,2-1,3.5c-0.2,1.8-1.1,2.6-2.9,2.6h-0.4h-0.6h-3.2h-0.6h-3.2h-0.6
				h-3.1h-0.7h-0.2c-1.9,0-2.9-1.1-2.9-3.2v-6.7h-4.2c-1.1,0-1.9,0.3-2.5,1c-0.9,0.9-1.3,2.4-1.3,4.4c0,3.7,1.3,5.5,3.9,5.5
				c1.7,0,2.9-0.7,3.5-2.1c0.6,1.4,1.8,2.1,3.4,2.1h0.3h0.7h3h0.6h3.2h0.6h3.2h0.6h0.5c1.3,0,2.3-0.4,3-1.3c0.5,1.9,1.8,2.9,3.9,2.9
				c2.1,0,3.6-1.2,4-3.2c0.8,1,1.9,1.5,3.2,1.5h0.2h0.8h16.6h1h0.6c2.3,0,3.8-1.6,3.8-4v-6.9l-1.1,0.4V177.1z M394.5,175.8
				c0,3-1,4.5-2.9,4.5c-2,0-2.9-1.5-2.9-4.5c0-3,1-4.5,2.9-4.5h2.9V175.8z M417.8,182c-2,0-3-1.4-3-4.1c0-2.8,1-4.1,3-4.1
				c2,0,3,1.4,3,4.1C420.9,180.6,419.9,182,417.8,182z M440.6,180.3l-11.5,0c0.1-1.7,0.8-3.4,2.1-5.2c1.5-2.2,3.2-3.2,5.1-3.1
				c1.5,0.1,2.6,0.7,3.4,2c0.7,1.3,1,2.8,1,4.5C440.7,179.2,440.7,179.7,440.6,180.3z"/>
			<path class="st1" d="M445.2,167.4c0.5,0,0.7-0.2,0.7-0.8c0-0.5-0.2-0.8-0.7-0.8c-0.5,0-0.7,0.2-0.7,0.8
				C444.5,167.1,444.8,167.4,445.2,167.4z"/>
			<path class="st1" d="M454.6,164.7h-2v-0.3c0-0.7,0.2-1,0.7-1c0.3,0,0.5,0.1,0.7,0.3l0.4-0.6c-0.3-0.3-0.6-0.4-1-0.4
				c-1,0-1.6,0.6-1.6,1.7v0.2h-0.6l-0.5,0.7h3.8V164.7z"/>
			<path class="st1" d="M466.5,166.2v10.9c0,2.1-1,3.2-2.9,3.2h-0.3h-1c-1.9,0-2.9-1-2.9-3.1v-11.4l-1.1,0.3v10.9
				c0,2.1-1,3.2-2.9,3.2h-1.4v-13.3l-1.1,0.4v12.9h-2.6l-0.5,1h6.1c1.3,0,2.2-0.6,2.9-1.8c0.7,1.2,1.7,1.8,3.2,1.8h0.1h1.1h0.4
				c2.3,0,3.8-1.6,3.8-4v-11.5L466.5,166.2z"/>
		</g>
	</g>
</g>
</svg>
